name: Symbol 24
family: Symbol
point-size: 24
spacing: proportional
offset: -3 -8
encoding: mac-symbol
default-char: missing
converter: monobit v0.10
source-name: ._System 6.0.8 Fonts~
source-format: MacOS FONT (AppleDouble container)

0x00:
    .........
    .........
    .........
    .........
    .........
    .........
    .........
    .........
    .........
    .........
    .........
    .........
    .........
    .........
    .........
    .........
    .........
    .........
    .........
    .........
    .........
    .........
    .........
    .........
    .........
    .........
    .........
    .........
    .........
    .........
    .........

0x09:
    .........
    .........
    .........
    .........
    .........
    .........
    .........
    .........
    .........
    .........
    .........
    .........
    .........
    .........
    .........
    .........
    .........
    .........
    .........
    .........
    .........
    .........
    .........
    .........
    .........
    .........
    .........
    .........
    .........
    .........
    .........

0x0d:
    ...
    ...
    ...
    ...
    ...
    ...
    ...
    ...
    ...
    ...
    ...
    ...
    ...
    ...
    ...
    ...
    ...
    ...
    ...
    ...
    ...
    ...
    ...
    ...
    ...
    ...
    ...
    ...
    ...
    ...
    ...


# [ ] SPACE
u+0020:
0x20:
    .........
    .........
    .........
    .........
    .........
    .........
    .........
    .........
    .........
    .........
    .........
    .........
    .........
    .........
    .........
    .........
    .........
    .........
    .........
    .........
    .........
    .........
    .........
    .........
    .........
    .........
    .........
    .........
    .........
    .........
    .........


# [!] EXCLAMATION MARK
u+0021:
0x21:
    ...........
    ...........
    ...........
    ...........
    ...........
    ...........
    ...........
    .......@...
    ......@@@..
    ......@@@..
    ......@@@..
    ......@@@..
    ......@@@..
    ......@@@..
    .......@...
    .......@...
    .......@...
    .......@...
    .......@...
    ...........
    ...........
    ......@@@..
    ......@@@..
    ...........
    ...........
    ...........
    ...........
    ...........
    ...........
    ...........
    ...........


# [∀] FOR ALL
u+2200:
0x22:
    ....................
    ....................
    ....................
    ....................
    ....................
    ....................
    ....................
    ....@.............@.
    ....@.............@.
    .....@...........@..
    .....@...........@..
    ......@@@@@@@@@@@...
    ......@.........@...
    .......@.......@....
    .......@.......@....
    ........@.....@.....
    ........@.....@.....
    .........@...@......
    .........@...@......
    ..........@.@.......
    ..........@.@.......
    ...........@........
    ...........@........
    ....................
    ....................
    ....................
    ....................
    ....................
    ....................
    ....................
    ....................


# [#] NUMBER SIGN
u+0023:
0x23:
    ...............
    ...............
    ...............
    ...............
    ...............
    ...............
    ...............
    .......@...@...
    .......@...@...
    .......@...@...
    .......@...@...
    .......@...@...
    ....@@@@@@@@@@.
    ......@...@....
    ......@...@....
    ......@...@....
    ......@...@....
    ...@@@@@@@@@@..
    .....@...@.....
    .....@...@.....
    .....@...@.....
    .....@...@.....
    .....@...@.....
    ...............
    ...............
    ...............
    ...............
    ...............
    ...............
    ...............
    ...............


# [∃] THERE EXISTS
u+2203:
0x24:
    ................
    ................
    ................
    ................
    ................
    ................
    ................
    ....@@@@@@@@@@@.
    ..............@.
    ..............@.
    ..............@.
    ..............@.
    ..............@.
    ..............@.
    ....@@@@@@@@@@@.
    ..............@.
    ..............@.
    ..............@.
    ..............@.
    ..............@.
    ..............@.
    ..............@.
    ....@@@@@@@@@@@.
    ................
    ................
    ................
    ................
    ................
    ................
    ................
    ................


# [%] PERCENT SIGN
u+0025:
0x25:
    .......................
    .......................
    .......................
    .......................
    .......................
    .......................
    ..................@@...
    .........@@@...@@@@....
    .......@@@..@@@..@.....
    .......@@...@...@@.....
    ......@@....@..@@......
    ......@@...@...@.......
    ......@@..@@..@@.......
    ......@@@@@..@@........
    .......@@@...@.........
    ............@@...@@@...
    ...........@@..@@@..@..
    ...........@...@@...@..
    ..........@@..@@....@..
    .........@@...@@...@...
    .........@....@@..@@...
    ........@@....@@@@@....
    .......@@......@@@.....
    .......................
    .......................
    .......................
    .......................
    .......................
    .......................
    .......................
    .......................


# [&] AMPERSAND
u+0026:
0x26:
    ......................
    ......................
    ......................
    ......................
    ......................
    ......................
    ......................
    ..........@@@@........
    .........@@..@@.......
    ........@@...@@.......
    ........@@...@@.......
    ........@@...@........
    ........@@..@.........
    .........@@@..@@@@@@@.
    ........@@@.....@@@...
    ......@@..@@....@@....
    .....@@....@@...@.....
    ....@@......@@.@......
    ....@@.......@@.......
    ....@@.......@@@......
    ....@@@.....@@.@@...@.
    .....@@@@@@@@...@@@@..
    ......@@@@@......@@...
    ......................
    ......................
    ......................
    ......................
    ......................
    ......................
    ......................
    ......................


# [∍] SMALL CONTAINS AS MEMBER
u+220d:
0x27:
    ..............
    ..............
    ..............
    ..............
    ..............
    ..............
    ..............
    ..............
    ..............
    ..............
    .....@@@@@....
    ..........@@..
    ...........@..
    ...........@@.
    ...........@@.
    ...........@@.
    .......@@@@@@.
    ...........@@.
    ...........@@.
    ...........@@.
    ...........@..
    ..........@@..
    .....@@@@@....
    ..............
    ..............
    ..............
    ..............
    ..............
    ..............
    ..............
    ..............


# [(] LEFT PARENTHESIS
u+0028:
0x28:
    ...........
    ...........
    ...........
    ...........
    ...........
    ...........
    ...........
    .........@.
    ........@..
    .......@...
    ......@@...
    ......@....
    .....@@....
    .....@.....
    ....@@.....
    ....@@.....
    ....@@.....
    ....@@.....
    ....@@.....
    ....@@.....
    ....@@.....
    .....@.....
    .....@@....
    ......@....
    ......@@...
    .......@...
    ........@..
    .........@.
    ...........
    ...........
    ...........


# [)] RIGHT PARENTHESIS
u+0029:
0x29:
    ...........
    ...........
    ...........
    ...........
    ...........
    ...........
    ...........
    ....@......
    .....@.....
    ......@....
    ......@@...
    .......@...
    .......@@..
    ........@..
    ........@@.
    ........@@.
    ........@@.
    ........@@.
    ........@@.
    ........@@.
    ........@@.
    ........@..
    .......@@..
    .......@...
    ......@@...
    ......@....
    .....@.....
    ....@......
    ...........
    ...........
    ...........


# [∗] ASTERISK OPERATOR
u+2217:
0x2a:
    ...............
    ...............
    ...............
    ...............
    ...............
    ...............
    ...............
    ...............
    ...............
    ...............
    ........@......
    ........@......
    .....@..@..@...
    ......@.@.@....
    .......@@@.....
    .......@@@.....
    ......@.@.@....
    .....@..@..@...
    ........@......
    ........@......
    ...............
    ...............
    ...............
    ...............
    ...............
    ...............
    ...............
    ...............
    ...............
    ...............
    ...............


# [+] PLUS SIGN
u+002b:
0x2b:
    ................
    ................
    ................
    ................
    ................
    ................
    ................
    ................
    ................
    ................
    ................
    .........@......
    .........@......
    .........@......
    .........@......
    .........@......
    ....@@@@@@@@@@@.
    .........@......
    .........@......
    .........@......
    .........@......
    .........@......
    ................
    ................
    ................
    ................
    ................
    ................
    ................
    ................
    ................


# [,] COMMA
u+002c:
0x2c:
    ...........
    ...........
    ...........
    ...........
    ...........
    ...........
    ...........
    ...........
    ...........
    ...........
    ...........
    ...........
    ...........
    ...........
    ...........
    ...........
    ...........
    ...........
    ...........
    ...........
    ...........
    ......@@...
    ......@@...
    .......@...
    .......@...
    ......@....
    ...........
    ...........
    ...........
    ...........
    ...........


# [−] MINUS SIGN
u+2212:
0x2d:
    ................
    ................
    ................
    ................
    ................
    ................
    ................
    ................
    ................
    ................
    ................
    ................
    ................
    ................
    ................
    ................
    ...@@@@@@@@@@@@.
    ................
    ................
    ................
    ................
    ................
    ................
    ................
    ................
    ................
    ................
    ................
    ................
    ................
    ................


# [.] FULL STOP
u+002e:
0x2e:
    ...........
    ...........
    ...........
    ...........
    ...........
    ...........
    ...........
    ...........
    ...........
    ...........
    ...........
    ...........
    ...........
    ...........
    ...........
    ...........
    ...........
    ...........
    ...........
    ...........
    ...........
    ......@@...
    ......@@...
    ...........
    ...........
    ...........
    ...........
    ...........
    ...........
    ...........
    ...........


# [/] SOLIDUS
u+002f:
0x2f:
    ..........
    ..........
    ..........
    ..........
    ..........
    ..........
    ..........
    ........@.
    ........@.
    ........@.
    .......@..
    .......@..
    .......@..
    ......@...
    ......@...
    ......@...
    ......@...
    .....@....
    .....@....
    .....@....
    ....@.....
    ....@.....
    ....@.....
    ..........
    ..........
    ..........
    ..........
    ..........
    ..........
    ..........
    ..........


# [0] DIGIT ZERO
u+0030:
0x30:
    ...............
    ...............
    ...............
    ...............
    ...............
    ...............
    ...............
    .......@@@@....
    ......@@..@@...
    .....@@....@@..
    .....@@....@@..
    ....@@......@@.
    ....@@......@@.
    ....@@......@@.
    ....@@......@@.
    ....@@......@@.
    ....@@......@@.
    ....@@......@@.
    ....@@......@@.
    .....@@....@@..
    .....@@....@@..
    ......@@..@@...
    .......@@@@....
    ...............
    ...............
    ...............
    ...............
    ...............
    ...............
    ...............
    ...............


# [1] DIGIT ONE
u+0031:
0x31:
    ...............
    ...............
    ...............
    ...............
    ...............
    ...............
    ...............
    .........@.....
    ........@@.....
    .......@@@.....
    ......@.@@.....
    ........@@.....
    ........@@.....
    ........@@.....
    ........@@.....
    ........@@.....
    ........@@.....
    ........@@.....
    ........@@.....
    ........@@.....
    ........@@.....
    ........@@.....
    ......@@@@@@...
    ...............
    ...............
    ...............
    ...............
    ...............
    ...............
    ...............
    ...............


# [2] DIGIT TWO
u+0032:
0x32:
    ...............
    ...............
    ...............
    ...............
    ...............
    ...............
    ...............
    ......@@@@.....
    ....@@@@@@@....
    ....@....@@@...
    ...@......@@...
    ..........@@...
    ..........@@...
    ..........@@...
    .........@@....
    .........@@....
    ........@@.....
    ........@......
    .......@.......
    ......@........
    .....@.......@.
    ....@@@@@@@@@..
    ...@@@@@@@@@...
    ...............
    ...............
    ...............
    ...............
    ...............
    ...............
    ...............
    ...............


# [3] DIGIT THREE
u+0033:
0x33:
    ...............
    ...............
    ...............
    ...............
    ...............
    ...............
    ...............
    .......@@@.....
    .....@@@@@@....
    ....@@...@@@...
    ....@.....@@...
    ..........@@...
    .........@@....
    ........@@.....
    .......@@@@....
    ..........@@...
    ...........@@..
    ...........@@..
    ...........@@..
    ...........@@..
    ....@@....@@...
    ....@@@...@@...
    .....@@@@@.....
    ...............
    ...............
    ...............
    ...............
    ...............
    ...............
    ...............
    ...............


# [4] DIGIT FOUR
u+0034:
0x34:
    ...............
    ...............
    ...............
    ...............
    ...............
    ...............
    ...............
    ...........@...
    ..........@@...
    .........@@@...
    ........@@@@...
    .......@@.@@...
    ......@@..@@...
    .....@@...@@...
    ....@@....@@...
    ...@@.....@@...
    ...@@@@@@@@@@@.
    ...@@@@@@@@@@@.
    ..........@@...
    ..........@@...
    ..........@@...
    ..........@@...
    ..........@@...
    ...............
    ...............
    ...............
    ...............
    ...............
    ...............
    ...............
    ...............


# [5] DIGIT FIVE
u+0035:
0x35:
    ...............
    ...............
    ...............
    ...............
    ...............
    ...............
    ...............
    .......@@@@@@@.
    ......@@@@@@@..
    ......@........
    .....@@........
    .....@.........
    ....@@@@@......
    .......@@@@....
    .........@@@...
    ..........@@...
    ...........@@..
    ...........@@..
    ...........@@..
    ...........@@..
    ...@@.....@@...
    ...@@@...@@....
    ....@@@@@......
    ...............
    ...............
    ...............
    ...............
    ...............
    ...............
    ...............
    ...............


# [6] DIGIT SIX
u+0036:
0x36:
    ...............
    ...............
    ...............
    ...............
    ...............
    ...............
    ...............
    ..........@@@..
    ........@@@....
    .......@@......
    ......@@.......
    .....@@........
    .....@@........
    ....@@.@@@@....
    ....@@@....@@..
    ....@@......@..
    ....@@......@@.
    ....@@......@@.
    ....@@......@@.
    ....@@......@@.
    .....@......@..
    .....@@....@@..
    .......@@@@....
    ...............
    ...............
    ...............
    ...............
    ...............
    ...............
    ...............
    ...............


# [7] DIGIT SEVEN
u+0037:
0x37:
    ...............
    ...............
    ...............
    ...............
    ...............
    ...............
    ...............
    ......@@@@@@@@.
    .....@@@@@@@@@.
    ....@.......@@.
    ...........@@..
    ...........@@..
    ...........@@..
    ..........@@...
    ..........@@...
    ..........@@...
    .........@@....
    .........@@....
    ........@@.....
    ........@@.....
    ........@@.....
    .......@@......
    .......@@......
    ...............
    ...............
    ...............
    ...............
    ...............
    ...............
    ...............
    ...............


# [8] DIGIT EIGHT
u+0038:
0x38:
    ...............
    ...............
    ...............
    ...............
    ...............
    ...............
    ...............
    .......@@@@....
    ......@@..@@...
    .....@@....@@..
    .....@@....@@..
    .....@@....@@..
    .....@@@..@@...
    ......@@@@@....
    .......@@@@....
    ......@@.@@@...
    .....@@...@@@..
    ....@@.....@@@.
    ....@@......@@.
    ....@@......@@.
    ....@@......@@.
    .....@@....@@..
    ......@@@@@@...
    ...............
    ...............
    ...............
    ...............
    ...............
    ...............
    ...............
    ...............


# [9] DIGIT NINE
u+0039:
0x39:
    ...............
    ...............
    ...............
    ...............
    ...............
    ...............
    ...............
    .......@@@@....
    .....@@....@@..
    .....@......@..
    ....@@......@@.
    ....@@......@@.
    ....@@......@@.
    ....@@......@@.
    .....@......@@.
    .....@@....@@@.
    .......@@@@.@@.
    ...........@@..
    ...........@@..
    ..........@@...
    .........@@....
    .......@@@.....
    .....@@@.......
    ...............
    ...............
    ...............
    ...............
    ...............
    ...............
    ...............
    ...............


# [:] COLON
u+003a:
0x3a:
    ..........
    ..........
    ..........
    ..........
    ..........
    ..........
    ..........
    ..........
    ..........
    ..........
    .....@@...
    .....@@...
    ..........
    ..........
    ..........
    ..........
    ..........
    ..........
    ..........
    ..........
    ..........
    .....@@...
    .....@@...
    ..........
    ..........
    ..........
    ..........
    ..........
    ..........
    ..........
    ..........


# [;] SEMICOLON
u+003b:
0x3b:
    ..........
    ..........
    ..........
    ..........
    ..........
    ..........
    ..........
    ..........
    ..........
    ..........
    .....@@...
    .....@@...
    ..........
    ..........
    ..........
    ..........
    ..........
    ..........
    ..........
    ..........
    ..........
    .....@@...
    .....@@...
    ......@...
    ......@...
    .....@....
    ..........
    ..........
    ..........
    ..........
    ..........


# [<] LESS-THAN SIGN
u+003c:
0x3c:
    ................
    ................
    ................
    ................
    ................
    ................
    ................
    ................
    ................
    ................
    ................
    .............@@.
    ...........@@...
    .........@@.....
    .......@@.......
    .....@@.........
    ...@@...........
    .....@@.........
    .......@@.......
    .........@@.....
    ...........@@...
    .............@@.
    ................
    ................
    ................
    ................
    ................
    ................
    ................
    ................
    ................


# [=] EQUALS SIGN
u+003d:
0x3d:
    ................
    ................
    ................
    ................
    ................
    ................
    ................
    ................
    ................
    ................
    ................
    ................
    ................
    ................
    ...@@@@@@@@@@@@.
    ................
    ................
    ................
    ...@@@@@@@@@@@@.
    ................
    ................
    ................
    ................
    ................
    ................
    ................
    ................
    ................
    ................
    ................
    ................


# [>] GREATER-THAN SIGN
u+003e:
0x3e:
    ................
    ................
    ................
    ................
    ................
    ................
    ................
    ................
    ................
    ................
    ................
    ...@@...........
    .....@@.........
    .......@@.......
    .........@@.....
    ...........@@...
    .............@@.
    ...........@@...
    .........@@.....
    .......@@.......
    .....@@.........
    ...@@...........
    ................
    ................
    ................
    ................
    ................
    ................
    ................
    ................
    ................


# [?] QUESTION MARK
u+003f:
0x3f:
    ..............
    ..............
    ..............
    ..............
    ..............
    ..............
    ..............
    ......@@@@....
    .....@@..@@...
    ....@@....@@..
    ....@@....@@..
    ....@@@...@@..
    .....@@..@@...
    .........@@...
    ........@@....
    ........@.....
    .......@@.....
    .......@......
    .......@......
    ..............
    ..............
    .......@@.....
    .......@@.....
    ..............
    ..............
    ..............
    ..............
    ..............
    ..............
    ..............
    ..............


# [≅] APPROXIMATELY EQUAL TO
u+2245:
0x40:
    ................
    ................
    ................
    ................
    ................
    ................
    ................
    ................
    ................
    ................
    .....@@@@....@..
    ....@....@@@@...
    ................
    ................
    ................
    ................
    ....@@@@@@@@@@..
    ................
    ................
    ................
    ................
    ................
    ....@@@@@@@@@@..
    ................
    ................
    ................
    ................
    ................
    ................
    ................
    ................


# [Α] GREEK CAPITAL LETTER ALPHA
u+0391:
0x41:
    ....................
    ....................
    ....................
    ....................
    ....................
    ....................
    ....................
    ...........@........
    ...........@........
    ..........@@@.......
    ..........@@@.......
    ..........@.@@......
    .........@..@@......
    .........@...@@.....
    ........@....@@.....
    ........@.....@@....
    .......@......@@....
    .......@@@@@@@@@@...
    ......@@.......@@...
    ......@........@@...
    .....@@.........@@..
    .....@..........@@..
    ...@@@@@......@@@@@@
    ....................
    ....................
    ....................
    ....................
    ....................
    ....................
    ....................
    ....................


# [Β] GREEK CAPITAL LETTER BETA
u+0392:
0x42:
    ...................
    ...................
    ...................
    ...................
    ...................
    ...................
    ...................
    ....@@@@@@@@@......
    ......@@.....@@....
    ......@@......@@...
    ......@@......@@...
    ......@@......@@...
    ......@@......@@...
    ......@@.....@@....
    ......@@@@@@@@.....
    ......@@.....@@....
    ......@@......@@...
    ......@@......@@@..
    ......@@......@@@..
    ......@@......@@@..
    ......@@......@@...
    ......@@.....@@@...
    ....@@@@@@@@@@.....
    ...................
    ...................
    ...................
    ...................
    ...................
    ...................
    ...................
    ...................


# [Χ] GREEK CAPITAL LETTER CHI
u+03a7:
0x43:
    ....................
    ....................
    ....................
    ....................
    ....................
    ....................
    ....................
    ...@@@@@@...@@@@@@..
    .....@@.......@@....
    ......@@......@.....
    .......@@....@......
    .......@@....@......
    ........@@..@.......
    .........@@.@.......
    .........@@@........
    ..........@@........
    .........@.@@.......
    ........@..@@.......
    ........@...@@......
    .......@.....@@.....
    ......@......@@.....
    .....@@.......@@....
    ...@@@@@@...@@@@@@..
    ....................
    ....................
    ....................
    ....................
    ....................
    ....................
    ....................
    ....................


# [Δ] GREEK CAPITAL LETTER DELTA
u+0394:
0x44:
    ..................
    ..................
    ..................
    ..................
    ..................
    ..................
    ..................
    ..........@.......
    ..........@.......
    .........@@@......
    .........@@@......
    ........@..@@.....
    ........@..@@.....
    .......@....@@....
    .......@....@@....
    ......@......@@...
    ......@......@@...
    .....@........@@..
    .....@........@@..
    ....@..........@@.
    ....@..........@@.
    ...@............@@
    ...@@@@@@@@@@@@@@@
    ..................
    ..................
    ..................
    ..................
    ..................
    ..................
    ..................
    ..................


# [Ε] GREEK CAPITAL LETTER EPSILON
u+0395:
0x45:
    ...................
    ...................
    ...................
    ...................
    ...................
    ...................
    ...................
    .....@@@@@@@@@@@@..
    .......@@......@@..
    .......@@.......@..
    .......@@..........
    .......@@..........
    .......@@.....@....
    .......@@....@@....
    .......@@@@@@@@....
    .......@@....@@....
    .......@@.....@....
    .......@@..........
    .......@@..........
    .......@@.......@..
    .......@@.......@..
    .......@@......@@..
    .....@@@@@@@@@@@@..
    ...................
    ...................
    ...................
    ...................
    ...................
    ...................
    ...................
    ...................


# [Φ] GREEK CAPITAL LETTER PHI
u+03a6:
0x46:
    .....................
    .....................
    .....................
    .....................
    .....................
    .....................
    .....................
    .........@@@@@@......
    ...........@@........
    ........@@@@@@@@.....
    ......@@...@@...@@...
    .....@@....@@....@@..
    .....@.....@@.....@..
    ....@@.....@@.....@@.
    ....@@.....@@.....@@.
    ....@@.....@@.....@@.
    .....@.....@@.....@..
    .....@@....@@....@@..
    ......@@...@@...@@...
    ........@@@@@@@@.....
    ...........@@........
    ...........@@........
    .........@@@@@@......
    .....................
    .....................
    .....................
    .....................
    .....................
    .....................
    .....................
    .....................


# [Γ] GREEK CAPITAL LETTER GAMMA
u+0393:
0x47:
    .................
    .................
    .................
    .................
    .................
    .................
    .................
    ....@@@@@@@@@@@..
    ......@@.....@@..
    ......@@......@..
    ......@@.........
    ......@@.........
    ......@@.........
    ......@@.........
    ......@@.........
    ......@@.........
    ......@@.........
    ......@@.........
    ......@@.........
    ......@@.........
    ......@@.........
    ......@@.........
    ....@@@@@@.......
    .................
    .................
    .................
    .................
    .................
    .................
    .................
    .................


# [Η] GREEK CAPITAL LETTER ETA
u+0397:
0x48:
    .....................
    .....................
    .....................
    .....................
    .....................
    .....................
    .....................
    ....@@@@@@....@@@@@@.
    ......@@........@@...
    ......@@........@@...
    ......@@........@@...
    ......@@........@@...
    ......@@........@@...
    ......@@........@@...
    ......@@@@@@@@@@@@...
    ......@@........@@...
    ......@@........@@...
    ......@@........@@...
    ......@@........@@...
    ......@@........@@...
    ......@@........@@...
    ......@@........@@...
    ....@@@@@@....@@@@@@.
    .....................
    .....................
    .....................
    .....................
    .....................
    .....................
    .....................
    .....................


# [Ι] GREEK CAPITAL LETTER IOTA
u+0399:
0x49:
    ...........
    ...........
    ...........
    ...........
    ...........
    ...........
    ...........
    ....@@@@@@.
    ......@@...
    ......@@...
    ......@@...
    ......@@...
    ......@@...
    ......@@...
    ......@@...
    ......@@...
    ......@@...
    ......@@...
    ......@@...
    ......@@...
    ......@@...
    ......@@...
    ....@@@@@@.
    ...........
    ...........
    ...........
    ...........
    ...........
    ...........
    ...........
    ...........


# [ϑ] GREEK THETA SYMBOL
u+03d1:
0x4a:
    ..................
    ..................
    ..................
    ..................
    ..................
    ..................
    ..........@@@.....
    .........@..@@....
    .........@...@@...
    .........@...@@...
    ..........@...@@..
    ..........@...@@..
    .....@@....@..@@..
    ....@@@@....@.@@..
    ...@..@@.....@@@..
    ......@@......@@@.
    ......@@......@@..
    ......@@......@@..
    ......@@......@@..
    ......@@.....@@...
    .......@.....@@...
    .......@@...@@....
    .........@@@......
    ..................
    ..................
    ..................
    ..................
    ..................
    ..................
    ..................
    ..................


# [Κ] GREEK CAPITAL LETTER KAPPA
u+039a:
0x4b:
    ....................
    ....................
    ....................
    ....................
    ....................
    ....................
    ....................
    ....@@@@@@...@@@@@@.
    ......@@.......@@...
    ......@@......@@....
    ......@@.....@@.....
    ......@@....@@......
    ......@@...@@.......
    ......@@..@@........
    ......@@.@@.........
    ......@@@@@@........
    ......@@..@@@.......
    ......@@...@@@......
    ......@@....@@@.....
    ......@@.....@@@....
    ......@@......@@@...
    ......@@.......@@@..
    ....@@@@@@...@@@@@@.
    ....................
    ....................
    ....................
    ....................
    ....................
    ....................
    ....................
    ....................


# [Λ] GREEK CAPITAL LETTER LAMDA
u+039b:
0x4c:
    ...................
    ...................
    ...................
    ...................
    ...................
    ...................
    ...................
    ...........@.......
    ...........@.......
    ..........@@@......
    ..........@@@......
    ..........@@@......
    .........@..@@.....
    .........@..@@.....
    ........@...@@.....
    ........@....@@....
    ........@....@@....
    .......@......@@...
    .......@......@@...
    ......@.......@@...
    ......@........@@..
    .....@@........@@..
    ...@@@@@@...@@@@@@@
    ...................
    ...................
    ...................
    ...................
    ...................
    ...................
    ...................
    ...................


# [Μ] GREEK CAPITAL LETTER MU
u+039c:
0x4d:
    .........................
    .........................
    .........................
    .........................
    .........................
    .........................
    .........................
    .....@@@@..........@@@@@.
    .......@@..........@@@...
    .......@@@........@.@@...
    .......@@@........@.@@...
    .......@.@@.......@.@@...
    .......@.@@......@..@@...
    .......@..@@.....@..@@...
    .......@..@@.....@..@@...
    .......@...@@...@...@@...
    .......@...@@...@...@@...
    .......@....@@..@...@@...
    .......@....@@.@....@@...
    .......@.....@@@....@@...
    .......@.....@@@....@@...
    .......@......@.....@@...
    .....@@@@@....@...@@@@@@.
    .........................
    .........................
    .........................
    .........................
    .........................
    .........................
    .........................
    .........................


# [Ν] GREEK CAPITAL LETTER NU
u+039d:
0x4e:
    .....................
    .....................
    .....................
    .....................
    .....................
    .....................
    .....................
    ....@@@........@@@@@.
    ......@@.........@...
    ......@@@........@...
    ......@@@........@...
    ......@.@@.......@...
    ......@..@@......@...
    ......@...@@.....@...
    ......@....@@....@...
    ......@....@@....@...
    ......@.....@@...@...
    ......@......@@..@...
    ......@.......@@.@...
    ......@........@@@...
    ......@........@@@...
    ......@.........@@...
    ....@@@@@........@...
    .....................
    .....................
    .....................
    .....................
    .....................
    .....................
    .....................
    .....................


# [Ο] GREEK CAPITAL LETTER OMICRON
u+039f:
0x4f:
    .....................
    .....................
    .....................
    .....................
    .....................
    .....................
    .....................
    .........@@@@@.......
    .......@@.....@@.....
    ......@@.......@@....
    .....@@.........@@...
    .....@@.........@@...
    ....@@...........@@..
    ....@@...........@@..
    ....@@...........@@..
    ....@@...........@@..
    ....@@...........@@..
    ....@@...........@@..
    .....@@.........@@...
    .....@@.........@@...
    ......@@.......@@....
    .......@@.....@@.....
    .........@@@@@.......
    .....................
    .....................
    .....................
    .....................
    .....................
    .....................
    .....................
    .....................


# [Π] GREEK CAPITAL LETTER PI
u+03a0:
0x50:
    ......................
    ......................
    ......................
    ......................
    ......................
    ......................
    ......................
    ....@@@@@@@@@@@@@@@@..
    ......@@........@@....
    ......@@........@@....
    ......@@........@@....
    ......@@........@@....
    ......@@........@@....
    ......@@........@@....
    ......@@........@@....
    ......@@........@@....
    ......@@........@@....
    ......@@........@@....
    ......@@........@@....
    ......@@........@@....
    ......@@........@@....
    ......@@........@@....
    ....@@@@@@....@@@@@@..
    ......................
    ......................
    ......................
    ......................
    ......................
    ......................
    ......................
    ......................


# [Θ] GREEK CAPITAL LETTER THETA
u+0398:
0x51:
    .....................
    .....................
    .....................
    .....................
    .....................
    .....................
    .....................
    .........@@@@@.......
    .......@@.....@@.....
    ......@@.......@@....
    .....@@.........@@...
    .....@@.........@@...
    ....@@...........@@..
    ....@@..@.....@..@@..
    ....@@..@@@@@@@..@@..
    ....@@..@@@@@@@..@@..
    ....@@..@.....@..@@..
    ....@@...........@@..
    .....@@.........@@...
    .....@@.........@@...
    ......@@.......@@....
    .......@@.....@@.....
    .........@@@@@.......
    .....................
    .....................
    .....................
    .....................
    .....................
    .....................
    .....................
    .....................


# [Ρ] GREEK CAPITAL LETTER RHO
u+03a1:
0x52:
    .................
    .................
    .................
    .................
    .................
    .................
    .................
    ....@@@@@@@@@....
    ......@@....@@@..
    ......@@.....@@..
    ......@@.....@@@.
    ......@@.....@@@.
    ......@@.....@@@.
    ......@@.....@@..
    ......@@....@@@..
    ......@@@@@@@....
    ......@@.........
    ......@@.........
    ......@@.........
    ......@@.........
    ......@@.........
    ......@@.........
    ....@@@@@@.......
    .................
    .................
    .................
    .................
    .................
    .................
    .................
    .................


# [Σ] GREEK CAPITAL LETTER SIGMA
u+03a3:
0x53:
    ..................
    ..................
    ..................
    ..................
    ..................
    ..................
    ..................
    ....@@@@@@@@@@@@..
    .....@@.......@@..
    ......@@.......@..
    .......@@.........
    ........@@........
    .........@@.......
    ..........@@......
    ...........@@.....
    ...........@......
    ..........@.......
    .........@........
    ........@.........
    .......@..........
    ......@........@..
    .....@@@@@@@@@@@..
    ....@@@@@@@@@@@@..
    ..................
    ..................
    ..................
    ..................
    ..................
    ..................
    ..................
    ..................


# [Τ] GREEK CAPITAL LETTER TAU
u+03a4:
0x54:
    ..................
    ..................
    ..................
    ..................
    ..................
    ..................
    ..................
    ...@@@@@@@@@@@@@@.
    ...@@....@@....@@.
    ...@.....@@.....@.
    ...@.....@@.....@.
    .........@@.......
    .........@@.......
    .........@@.......
    .........@@.......
    .........@@.......
    .........@@.......
    .........@@.......
    .........@@.......
    .........@@.......
    .........@@.......
    .........@@.......
    .......@@@@@@.....
    ..................
    ..................
    ..................
    ..................
    ..................
    ..................
    ..................
    ..................


# [Υ] GREEK CAPITAL LETTER UPSILON
u+03a5:
0x55:
    ....................
    ....................
    ....................
    ....................
    ....................
    ....................
    ....................
    ....@@@@@@....@@@@@.
    ......@@@.......@...
    .......@@.......@...
    ........@@.....@....
    ........@@.....@....
    .........@@...@.....
    .........@@...@.....
    ..........@@.@......
    ..........@@@@......
    ...........@@.......
    ...........@@.......
    ...........@@.......
    ...........@@.......
    ...........@@.......
    ...........@@.......
    .........@@@@@@.....
    ....................
    ....................
    ....................
    ....................
    ....................
    ....................
    ....................
    ....................


# [ς] GREEK SMALL LETTER FINAL SIGMA
u+03c2:
0x56:
    ..............
    ..............
    ..............
    ..............
    ..............
    ..............
    ..............
    ..............
    ..............
    ..............
    ..............
    ........@@@@..
    ......@@@@@@@.
    .....@@...@@..
    .....@........
    ....@.........
    ....@.........
    ....@.........
    ....@.........
    ....@@........
    ....@@@.......
    .....@@@@@@@..
    .......@@@@@@.
    ...........@@.
    ............@.
    .......@@...@.
    .......@@@@@@.
    ........@@@@..
    ..............
    ..............
    ..............


# [Ω] GREEK CAPITAL LETTER OMEGA
u+03a9:
0x57:
    ......................
    ......................
    ......................
    ......................
    ......................
    ......................
    ......................
    .........@@@@@@.......
    .......@@@....@@@.....
    ......@@@......@@@....
    ......@@........@@....
    .....@@@........@@@...
    .....@@..........@@...
    .....@@..........@@...
    .....@@..........@@...
    .....@@..........@@...
    .....@@..........@@...
    ......@..........@....
    ......@@........@@....
    .......@........@.....
    ....@...@......@...@..
    .....@@@@@....@@@@@...
    .....@@@@@....@@@@@...
    ......................
    ......................
    ......................
    ......................
    ......................
    ......................
    ......................
    ......................


# [Ξ] GREEK CAPITAL LETTER XI
u+039e:
0x58:
    ...................
    ...................
    ...................
    ...................
    ...................
    ...................
    ...................
    ....@@@@@@@@@@@@@@.
    ....@@@@@@@@@@@@@@.
    ....@............@.
    ....@............@.
    ...................
    ...................
    .......@......@....
    .......@@@@@@@@....
    .......@@@@@@@@....
    .......@......@....
    ...................
    ...................
    ....@............@.
    ....@@..........@@.
    ....@@@@@@@@@@@@@@.
    ....@@@@@@@@@@@@@@.
    ...................
    ...................
    ...................
    ...................
    ...................
    ...................
    ...................
    ...................


# [Ψ] GREEK CAPITAL LETTER PSI
u+03a8:
0x59:
    ......................
    ......................
    ......................
    ......................
    ......................
    ......................
    ......................
    ....@....@@@@@@....@..
    .....@.....@@.....@...
    .....@@....@@....@@...
    .....@@....@@....@@...
    .....@@....@@....@@...
    .....@@....@@....@@...
    ......@@...@@...@@....
    ......@@@..@@..@@@....
    ........@@@@@@@@......
    ...........@@.........
    ...........@@.........
    ...........@@.........
    ...........@@.........
    ...........@@.........
    ...........@@.........
    .........@@@@@@.......
    ......................
    ......................
    ......................
    ......................
    ......................
    ......................
    ......................
    ......................


# [Ζ] GREEK CAPITAL LETTER ZETA
u+0396:
0x5a:
    ...................
    ...................
    ...................
    ...................
    ...................
    ...................
    ...................
    ....@@@@@@@@@@@@@@.
    ....@@.........@@..
    ....@.........@@...
    .............@@....
    ............@@.....
    ............@@.....
    ...........@@......
    ..........@@.......
    ..........@@.......
    .........@@........
    ........@@.........
    .......@@..........
    .......@@..........
    ......@@.........@.
    .....@@.........@@.
    ....@@@@@@@@@@@@@@.
    ...................
    ...................
    ...................
    ...................
    ...................
    ...................
    ...................
    ...................


# [[] LEFT SQUARE BRACKET
u+005b:
0x5b:
    ...........
    ...........
    ...........
    ...........
    ...........
    ...........
    ...........
    ....@@@@@..
    ....@@.....
    ....@@.....
    ....@@.....
    ....@@.....
    ....@@.....
    ....@@.....
    ....@@.....
    ....@@.....
    ....@@.....
    ....@@.....
    ....@@.....
    ....@@.....
    ....@@.....
    ....@@.....
    ....@@.....
    ....@@.....
    ....@@.....
    ....@@.....
    ....@@.....
    ....@@@@@..
    ...........
    ...........
    ...........


# [∴] THEREFORE
u+2234:
0x5c:
    ........................
    ........................
    ........................
    ........................
    ........................
    ........................
    ........................
    ........................
    ........................
    ........................
    ........................
    ........................
    ........................
    ............@@..........
    ............@@..........
    ........................
    ........................
    ........................
    ........................
    ........................
    ........................
    .......@@........@@.....
    .......@@........@@.....
    ........................
    ........................
    ........................
    ........................
    ........................
    ........................
    ........................
    ........................


# []] RIGHT SQUARE BRACKET
u+005d:
0x5d:
    ...........
    ...........
    ...........
    ...........
    ...........
    ...........
    ...........
    ....@@@@@..
    .......@@..
    .......@@..
    .......@@..
    .......@@..
    .......@@..
    .......@@..
    .......@@..
    .......@@..
    .......@@..
    .......@@..
    .......@@..
    .......@@..
    .......@@..
    .......@@..
    .......@@..
    .......@@..
    .......@@..
    .......@@..
    .......@@..
    ....@@@@@..
    ...........
    ...........
    ...........


# [⊥] UP TACK
u+22a5:
0x5e:
    ...................
    ...................
    ...................
    ...................
    ...................
    ...................
    ...................
    ..........@........
    ..........@........
    ..........@........
    ..........@........
    ..........@........
    ..........@........
    ..........@........
    ..........@........
    ..........@........
    ..........@........
    ..........@........
    ..........@........
    ..........@........
    ..........@........
    ..........@........
    ...@@@@@@@@@@@@@@@.
    ...................
    ...................
    ...................
    ...................
    ...................
    ...................
    ...................
    ...................


# [_] LOW LINE
u+005f:
0x5f:
    ...............
    ...............
    ...............
    ...............
    ...............
    ...............
    ...............
    ...............
    ...............
    ...............
    ...............
    ...............
    ...............
    ...............
    ...............
    ...............
    ...............
    ...............
    ...............
    ...............
    ...............
    ...............
    ...............
    ...............
    ...............
    ...............
    ...............
    ...@@@@@@@@@@@@
    ...............
    ...............
    ...............

u+f8e5:
0x60:
    ...............
    ...............
    ...............
    ...............
    ...............
    ...@@@@@@@@@@@@
    ...............
    ...............
    ...............
    ...............
    ...............
    ...............
    ...............
    ...............
    ...............
    ...............
    ...............
    ...............
    ...............
    ...............
    ...............
    ...............
    ...............
    ...............
    ...............
    ...............
    ...............
    ...............
    ...............
    ...............
    ...............


# [α] GREEK SMALL LETTER ALPHA
u+03b1:
0x61:
    ..................
    ..................
    ..................
    ..................
    ..................
    ..................
    ..................
    ..................
    ..................
    ..................
    ......@@@@@.......
    ....@@@....@...@@.
    ....@@.....@...@@.
    ...@@.......@..@@.
    ...@@.......@.@@..
    ...@@.......@.@@..
    ...@@.......@@@...
    ...@@.......@@@...
    ...@@.......@@....
    ....@@.....@@@....
    ....@@.....@@@@.@.
    .....@@...@@.@@@@.
    .......@@@....@@..
    ..................
    ..................
    ..................
    ..................
    ..................
    ..................
    ..................
    ..................


# [β] GREEK SMALL LETTER BETA
u+03b2:
0x62:
    ................
    ................
    ................
    ................
    ................
    ......@@@@@.....
    .....@@...@@....
    ....@@.....@@...
    ....@@.....@@...
    ....@@.....@@...
    ....@@.....@@...
    ....@@....@@....
    ....@@..@@@.....
    ....@@....@@@...
    ....@@.....@@...
    ....@@......@@..
    ....@@......@@..
    ....@@......@@..
    ....@@......@@..
    ....@@......@@..
    ....@@.....@@...
    ....@@@...@@@...
    ....@@.@@@@.....
    ....@@..........
    ....@@..........
    ....@@..........
    ....@@..........
    ....@@..........
    ................
    ................
    ................


# [χ] GREEK SMALL LETTER CHI
u+03c7:
0x63:
    ................
    ................
    ................
    ................
    ................
    ................
    ................
    ................
    ................
    ................
    ....@@@.....@@..
    ...@@@@@....@@..
    ...@...@...@@...
    ........@..@@...
    ........@.@@....
    ........@.@@....
    ........@@@.....
    ........@@@.....
    .......@@@......
    .......@@@......
    ......@@.@......
    ......@@.@......
    .....@@..@......
    .....@@..@......
    ....@@...@......
    ....@@....@...@.
    ...@@.....@@@@@.
    ...@@......@@@..
    ................
    ................
    ................


# [δ] GREEK SMALL LETTER DELTA
u+03b4:
0x64:
    ...............
    ...............
    ...............
    ...............
    ...............
    .......@@@@@...
    ......@...@@@..
    ......@....@@..
    ......@@.......
    ......@@@......
    .......@@@.....
    ........@@@....
    .........@@@...
    .......@@.@@@..
    .....@@@...@@..
    .....@@.....@@.
    ....@@......@@.
    ....@@......@@.
    ....@@......@@.
    ....@@......@@.
    .....@......@..
    .....@@....@@..
    .......@@@@....
    ...............
    ...............
    ...............
    ...............
    ...............
    ...............
    ...............
    ...............


# [ε] GREEK SMALL LETTER EPSILON
u+03b5:
0x65:
    ..............
    ..............
    ..............
    ..............
    ..............
    ..............
    ..............
    ..............
    ..............
    ..............
    ......@@@@@@..
    .....@@...@@@.
    ....@@.....@@.
    ....@@........
    ....@@........
    .....@@.......
    ......@@@.....
    .....@@.......
    ....@@........
    ....@@........
    ....@@........
    .....@@.....@.
    ......@@@@@@..
    ..............
    ..............
    ..............
    ..............
    ..............
    ..............
    ..............
    ..............


# [φ] GREEK SMALL LETTER PHI
u+03c6:
0x66:
    ................
    ................
    ................
    ................
    ................
    ................
    .........@......
    .........@......
    .........@......
    .........@......
    .......@@@@@....
    ......@@.@.@@...
    .....@@..@..@@..
    .....@...@...@..
    ....@@...@...@@.
    ....@@...@...@@.
    ....@@...@...@@.
    ....@@...@...@@.
    ....@@...@...@@.
    ....@@...@...@@.
    .....@...@...@..
    .....@@..@..@@..
    ......@@.@.@@...
    .......@@@@@....
    .........@......
    .........@......
    .........@......
    .........@......
    ................
    ................
    ................


# [γ] GREEK SMALL LETTER GAMMA
u+03b3:
0x67:
    .............
    .............
    .............
    .............
    .............
    .............
    .............
    .............
    .............
    .............
    ....@......@@
    ...@@@.....@@
    ...@@@.....@@
    ...@.@@...@@.
    ......@...@@.
    ......@...@@.
    ......@...@..
    .......@..@..
    .......@.@...
    .......@.@...
    .......@.@...
    ........@....
    ........@....
    ........@....
    .......@@@...
    .......@@@...
    .......@@@...
    ........@....
    .............
    .............
    .............


# [η] GREEK SMALL LETTER ETA
u+03b7:
0x68:
    ..................
    ..................
    ..................
    ..................
    ..................
    ..................
    ..................
    ..................
    ..................
    ..................
    .....@@...@@@.....
    ....@@@@.@@@@@....
    ....@.@@@...@@@...
    ......@@.....@@...
    ......@@.....@@...
    ......@@.....@@...
    ......@@.....@@...
    ......@@.....@@...
    ......@@.....@@...
    ......@@.....@@...
    ......@@.....@@...
    ......@@.....@@...
    ......@@.....@@...
    .............@@...
    .............@@...
    .............@@...
    .............@@...
    .............@@...
    ..................
    ..................
    ..................


# [ι] GREEK SMALL LETTER IOTA
u+03b9:
0x69:
    ...........
    ...........
    ...........
    ...........
    ...........
    ...........
    ...........
    ...........
    ...........
    ...........
    ......@....
    .....@@....
    ....@@@....
    .....@@....
    .....@@....
    .....@@....
    .....@@....
    .....@@....
    .....@@....
    .....@@....
    .....@@..@.
    .....@@@@..
    ......@@...
    ...........
    ...........
    ...........
    ...........
    ...........
    ...........
    ...........
    ...........


# [ϕ] GREEK PHI SYMBOL
u+03d5:
0x6a:
    .................
    .................
    .................
    .................
    .................
    .................
    .................
    .................
    .................
    .................
    ........@..@@@...
    ......@@..@@@@@..
    ......@@..@@..@@.
    .....@@...@...@@.
    .....@@...@...@@.
    .....@@...@...@@.
    .....@@...@...@@.
    .....@@...@...@@.
    .....@@...@...@@.
    .....@@...@...@@.
    ......@@..@..@@..
    ......@@..@..@@..
    ........@@@@@....
    ..........@......
    ..........@......
    ..........@......
    ..........@......
    ..........@......
    ..........@......
    .................
    .................


# [κ] GREEK SMALL LETTER KAPPA
u+03ba:
0x6b:
    ................
    ................
    ................
    ................
    ................
    ................
    ................
    ................
    ................
    ................
    ...@@......@@@..
    ....@@....@@@@@.
    ....@@...@...@@.
    ....@@..@.......
    ....@@.@........
    ....@@@.........
    ....@@@@........
    ....@@@@@.......
    ....@@.@@@......
    ....@@..@@@.....
    ....@@...@@@....
    ....@@....@@@...
    ....@@.....@@@..
    ................
    ................
    ................
    ................
    ................
    ................
    ................
    ................


# [λ] GREEK SMALL LETTER LAMDA
u+03bb:
0x6c:
    ................
    ................
    ................
    ................
    ................
    .....@@@........
    ....@@@@@.......
    ....@...@.......
    .........@......
    .........@......
    .........@......
    ........@@......
    ........@@......
    .......@@@......
    .......@@@......
    ......@@.@......
    ......@@.@......
    .....@@...@.....
    .....@@...@.....
    ....@@....@.....
    ....@@.....@..@.
    ...@@......@@@@.
    ...@@.......@@..
    ................
    ................
    ................
    ................
    ................
    ................
    ................
    ................


# [μ] GREEK SMALL LETTER MU
u+03bc:
0x6d:
    .................
    .................
    .................
    .................
    .................
    .................
    .................
    .................
    .................
    .................
    ....@@....@@.....
    ....@@....@@.....
    ....@@....@@.....
    ....@@....@@.....
    ....@@....@@.....
    ....@@....@@.....
    ....@@....@@.....
    ....@@....@@.....
    ....@@....@@.....
    ....@@....@@.....
    ....@@@...@@...@.
    ....@@@@@@.@@@@..
    ....@@.@@...@@...
    ....@@...........
    ....@@...........
    ....@@...........
    ....@@...........
    ....@@...........
    ....@@...........
    .................
    .................


# [ν] GREEK SMALL LETTER NU
u+03bd:
0x6e:
    ................
    ................
    ................
    ................
    ................
    ................
    ................
    ................
    ................
    ................
    ....@@......@@..
    ...@@@......@@..
    ....@@.......@..
    .....@@......@..
    .....@@.....@...
    ......@@....@...
    ......@@....@...
    .......@@..@....
    .......@@..@....
    ........@@@@....
    ........@@@.....
    .........@@.....
    .........@@.....
    ................
    ................
    ................
    ................
    ................
    ................
    ................
    ................


# [ο] GREEK SMALL LETTER OMICRON
u+03bf:
0x6f:
    ................
    ................
    ................
    ................
    ................
    ................
    ................
    ................
    ................
    ................
    ........@@@.....
    ......@@...@@...
    .....@@.....@@..
    .....@@.....@@..
    ....@@.......@@.
    ....@@.......@@.
    ....@@.......@@.
    ....@@.......@@.
    ....@@.......@@.
    .....@@.....@@..
    .....@@.....@@..
    ......@@...@@...
    ........@@@.....
    ................
    ................
    ................
    ................
    ................
    ................
    ................
    ................


# [π] GREEK SMALL LETTER PI
u+03c0:
0x70:
    ................
    ................
    ................
    ................
    ................
    ................
    ................
    ................
    ................
    ................
    .....@@@@@@@@@@.
    ....@@@@@@@@@@@.
    ...@..@@...@@...
    ......@@...@@...
    ......@@...@@...
    ......@@...@@...
    ......@@...@@...
    ......@@...@@...
    ......@@...@@...
    ......@@...@@...
    .....@@....@@..@
    ....@@@....@@@@.
    ....@@......@@..
    ................
    ................
    ................
    ................
    ................
    ................
    ................
    ................


# [θ] GREEK SMALL LETTER THETA
u+03b8:
0x71:
    ................
    ................
    ................
    ................
    ................
    ................
    .......@@@@.....
    ......@@..@@....
    .....@@....@@...
    .....@......@...
    ....@@......@@..
    ....@@......@@..
    ....@@......@@..
    ....@@......@@..
    ....@@@@@@@@@@..
    ....@@......@@..
    ....@@......@@..
    ....@@......@@..
    ....@@......@@..
    .....@......@...
    .....@@....@@...
    ......@@..@@....
    .......@@@@.....
    ................
    ................
    ................
    ................
    ................
    ................
    ................
    ................


# [ρ] GREEK SMALL LETTER RHO
u+03c1:
0x72:
    ................
    ................
    ................
    ................
    ................
    ................
    ................
    ................
    ................
    ................
    ........@@@.....
    ......@@@@@@@...
    .....@@....@@@..
    ....@@......@@..
    ....@@.......@@.
    ....@@.......@@.
    ....@@.......@@.
    ....@@.......@@.
    ....@@.......@@.
    ....@@.......@..
    ....@@......@@..
    ....@@@....@@...
    ....@@.@@@@.....
    ....@@..........
    ....@@..........
    ....@@..........
    ....@@..........
    ....@@..........
    ................
    ................
    ................


# [σ] GREEK SMALL LETTER SIGMA
u+03c3:
0x73:
    ..................
    ..................
    ..................
    ..................
    ..................
    ..................
    ..................
    ..................
    ..................
    ..................
    ........@@@@@@@@..
    ......@@@@@@@@@@..
    .....@@@...@@.....
    ....@@@.....@@....
    ....@@.......@....
    ....@@.......@@...
    ....@@.......@@...
    ....@@.......@@...
    ....@@.......@@...
    .....@.......@....
    .....@@.....@@....
    ......@@...@@.....
    ........@@@.......
    ..................
    ..................
    ..................
    ..................
    ..................
    ..................
    ..................
    ..................


# [τ] GREEK SMALL LETTER TAU
u+03c4:
0x74:
    .............
    .............
    .............
    .............
    .............
    .............
    .............
    .............
    .............
    .............
    .....@@@@@@@.
    ....@@@@@@@@.
    ...@...@@....
    .......@@....
    .......@@....
    .......@@....
    .......@@....
    .......@@....
    .......@@....
    .......@@....
    .......@@..@.
    .......@@@@..
    ........@@...
    .............
    .............
    .............
    .............
    .............
    .............
    .............
    .............


# [υ] GREEK SMALL LETTER UPSILON
u+03c5:
0x75:
    .................
    .................
    .................
    .................
    .................
    .................
    .................
    .................
    .................
    .................
    ....@@@....@.....
    ...@@@@@....@....
    ...@..@@....@@...
    ......@@.....@...
    ......@@.....@@..
    ......@@.....@@..
    ......@@.....@@..
    ......@@.....@@..
    ......@@.....@@..
    ......@@....@@...
    .......@@...@@...
    .......@@@@@@....
    .........@@@.....
    .................
    .................
    .................
    .................
    .................
    .................
    .................
    .................


# [ϖ] GREEK PI SYMBOL
u+03d6:
0x76:
    ....................
    ....................
    ....................
    ....................
    ....................
    ....................
    ....................
    ....................
    ....................
    ......@@@@@@@@@@@@@.
    .....@@@@@@@@@@@@@@.
    ....@..@@.....@@....
    ......@@.......@@...
    .....@@.........@@..
    .....@@....@....@@..
    ....@@....@@@....@@.
    ....@@....@@@....@@.
    ....@@....@@@....@@.
    ....@@....@@@....@@.
    ....@@.....@.....@@.
    .....@@....@....@@..
    .....@@@..@.@..@@@..
    ......@@@@...@@@@...
    ....................
    ....................
    ....................
    ....................
    ....................
    ....................
    ....................
    ....................


# [ω] GREEK SMALL LETTER OMEGA
u+03c9:
0x77:
    ....................
    ....................
    ....................
    ....................
    ....................
    ....................
    ....................
    ....................
    ....................
    ....................
    .......@@.....@@....
    ......@@.......@@...
    .....@@.........@@..
    .....@@.........@@..
    ....@@.....@.....@@.
    ....@@....@@@....@@.
    ....@@....@@@....@@.
    ....@@....@@@....@@.
    ....@@....@@@....@@.
    ....@@.....@.....@@.
    .....@@...@@@...@@@.
    .....@@@@@@.@@@@@@..
    .......@@@...@@@@...
    ....................
    ....................
    ....................
    ....................
    ....................
    ....................
    ....................
    ....................


# [ξ] GREEK SMALL LETTER XI
u+03be:
0x78:
    ...............
    ...............
    ...............
    ...............
    .....@@........
    ....@@.........
    ....@@.@@@.....
    .....@@@@......
    ....@@.........
    ....@@.........
    ....@@.........
    .....@@..@@@@..
    .......@@@@@...
    ......@@.......
    .....@@........
    .....@@........
    ....@@.........
    ....@@.........
    ....@@.........
    ....@@@........
    .....@@@.......
    .....@@@@@@@@..
    .......@@@@@@@.
    ............@@.
    .............@.
    ............@@.
    ........@@@@@..
    .........@@@...
    ...............
    ...............
    ...............


# [ψ] GREEK SMALL LETTER PSI
u+03c8:
0x79:
    ....................
    ....................
    ....................
    ....................
    ....................
    ....................
    ....................
    ....................
    ....................
    ....................
    ....@@....@@....@@..
    .....@@...@@...@@...
    ......@...@@...@....
    ......@@..@@..@@....
    ......@@..@@..@@....
    ......@@..@@..@@....
    ......@@..@@..@@....
    ......@@..@@..@@....
    ......@@..@@..@@....
    ......@@..@@..@@....
    ......@@..@@..@@....
    .......@@.@@.@@.....
    ........@@@@@@......
    ..........@@........
    ..........@@........
    ..........@@........
    ..........@@........
    ..........@@........
    ....................
    ....................
    ....................


# [ζ] GREEK SMALL LETTER ZETA
u+03b6:
0x7a:
    ...............
    ...............
    ...............
    ...............
    ...............
    .......@.......
    ......@........
    .....@@..@@@...
    .....@@.@@@@...
    ......@@@@.....
    .......@.......
    ......@........
    ......@........
    .....@.........
    .....@.........
    .....@.........
    .....@.........
    .....@.........
    .....@.........
    .....@.........
    .....@@........
    ......@@@@@@...
    .......@@@@@@..
    .............@.
    .............@.
    ............@@.
    .........@@@@..
    .........@@@...
    ...............
    ...............
    ...............


# [{] LEFT CURLY BRACKET
u+007b:
0x7b:
    ...............
    ...............
    ...............
    ...............
    ...............
    ...............
    ...............
    .........@@....
    ........@......
    .......@@......
    .......@@......
    .......@@......
    .......@@......
    .......@@......
    .......@@......
    .......@@......
    .......@.......
    .....@@........
    .......@.......
    .......@@......
    .......@@......
    .......@@......
    .......@@......
    .......@@......
    .......@@......
    .......@@......
    ........@......
    .........@@....
    ...............
    ...............
    ...............


# [|] VERTICAL LINE
u+007c:
0x7c:
    ........
    ........
    ........
    ........
    ........
    ........
    ........
    ....@@..
    ....@@..
    ....@@..
    ....@@..
    ....@@..
    ....@@..
    ....@@..
    ....@@..
    ....@@..
    ....@@..
    ....@@..
    ....@@..
    ....@@..
    ....@@..
    ....@@..
    ....@@..
    ....@@..
    ....@@..
    ....@@..
    ....@@..
    ....@@..
    ........
    ........
    ........


# [}] RIGHT CURLY BRACKET
u+007d:
0x7d:
    ...............
    ...............
    ...............
    ...............
    ...............
    ...............
    ...............
    ......@@.......
    ........@......
    ........@@.....
    ........@@.....
    ........@@.....
    ........@@.....
    ........@@.....
    ........@@.....
    ........@@.....
    .........@.....
    ..........@@...
    .........@.....
    ........@@.....
    ........@@.....
    ........@@.....
    ........@@.....
    ........@@.....
    ........@@.....
    ........@@.....
    ........@......
    ......@@.......
    ...............
    ...............
    ...............


# [∼] TILDE OPERATOR
u+223c:
0x7e:
    ................
    ................
    ................
    ................
    ................
    ................
    ................
    ................
    ................
    ................
    ................
    ................
    ................
    ................
    ................
    .....@@@@.....@.
    ....@@@@@@@@@@@.
    ....@.....@@@@..
    ................
    ................
    ................
    ................
    ................
    ................
    ................
    ................
    ................
    ................
    ................
    ................
    ................


# [ϒ] GREEK UPSILON WITH HOOK SYMBOL
u+03d2:
0xa1:
    ..................
    ..................
    ..................
    ..................
    ..................
    ..................
    .....@@@..........
    .......@@..@@@@...
    ........@.@....@..
    ........@@....@@..
    ........@@....@@..
    ........@@........
    ........@@........
    ........@@........
    ........@@........
    ........@@........
    ........@@........
    ........@@........
    ........@@........
    ........@@........
    ........@@........
    ........@@........
    ......@@@@@@......
    ..................
    ..................
    ..................
    ..................
    ..................
    ..................
    ..................
    ..................


# [′] PRIME
u+2032:
0xa2:
    .........
    .........
    .........
    .........
    .........
    .........
    ......@..
    ......@..
    .....@...
    .....@...
    .........
    .........
    .........
    .........
    .........
    .........
    .........
    .........
    .........
    .........
    .........
    .........
    .........
    .........
    .........
    .........
    .........
    .........
    .........
    .........
    .........


# [≤] LESS-THAN OR EQUAL TO
u+2264:
0xa3:
    ................
    ................
    ................
    ................
    ................
    ................
    ................
    ................
    ................
    ................
    ................
    ................
    .............@@.
    ...........@@...
    .........@@.....
    .......@@.......
    .....@@.........
    .......@@.......
    .........@@.....
    ...........@@...
    .............@@.
    ................
    ....@@@@@@@@@@@.
    ................
    ................
    ................
    ................
    ................
    ................
    ................
    ................


# [⁄] FRACTION SLASH
u+2044:
0xa4:
    ........
    ........
    ........
    ........
    ........
    ........
    ........
    ......@.
    ......@.
    ......@.
    ......@.
    ......@.
    .....@..
    .....@..
    .....@..
    .....@..
    .....@..
    .....@..
    ....@...
    ....@...
    ....@...
    ....@...
    ....@...
    ........
    ........
    ........
    ........
    ........
    ........
    ........
    ........


# [∞] INFINITY
u+221e:
0xa5:
    .....................
    .....................
    .....................
    .....................
    .....................
    .....................
    .....................
    .....................
    .....................
    .....................
    .....................
    .....................
    .....................
    .....@@@@.....@@@@...
    ....@....@...@....@..
    ...@......@.@......@.
    ...@.......@.......@.
    ...@......@.@......@.
    ....@....@...@....@..
    .....@@@@.....@@@@...
    .....................
    .....................
    .....................
    .....................
    .....................
    .....................
    .....................
    .....................
    .....................
    .....................
    .....................


# [ƒ] LATIN SMALL LETTER F WITH HOOK
u+0192:
0xa6:
    ...............
    ...............
    ...............
    ...............
    ...............
    ...............
    ...............
    ..........@@@..
    .........@@..@.
    .........@@.@@.
    .........@@....
    .........@@....
    ......@@@@@@@..
    ........@@.....
    ........@@.....
    ........@@.....
    ........@@.....
    ........@@.....
    ........@@.....
    ........@@.....
    .......@@......
    .......@@......
    .......@@......
    .......@@......
    .......@@......
    ...@@..@.......
    ...@..@........
    ....@@.........
    ...............
    ...............
    ...............


# [♣] BLACK CLUB SUIT
u+2663:
0xa7:
    .....................
    .....................
    .....................
    .....................
    .....................
    .....................
    .....................
    .....................
    .....................
    .....................
    ..........@@@@.......
    .........@@@@@@......
    .........@@@@@@......
    .........@@@@@@......
    ..........@@@@.......
    ......@@@..@@..@@@...
    .....@@@@@.@@.@@@@@..
    .....@@@@@@@@@@@@@@..
    .....@@@@@.@@.@@@@@..
    ......@@@..@@..@@@...
    ...........@@........
    ...........@@........
    .........@@@@@@......
    .....................
    .....................
    .....................
    .....................
    .....................
    .....................
    .....................
    .....................


# [♦] BLACK DIAMOND SUIT
u+2666:
0xa8:
    .....................
    .....................
    .....................
    .....................
    .....................
    .....................
    .....................
    .....................
    .....................
    .....................
    ...........@.........
    ..........@@@........
    .........@@@@@.......
    ........@@@@@@@......
    .......@@@@@@@@@.....
    ......@@@@@@@@@@@....
    ......@@@@@@@@@@@....
    ......@@@@@@@@@@@....
    .......@@@@@@@@@.....
    ........@@@@@@@......
    .........@@@@@.......
    ..........@@@........
    ...........@.........
    .....................
    .....................
    .....................
    .....................
    .....................
    .....................
    .....................
    .....................


# [♥] BLACK HEART SUIT
u+2665:
0xa9:
    .....................
    .....................
    .....................
    .....................
    .....................
    .....................
    .....................
    .....................
    .....................
    .....................
    .......@@@...@@@.....
    ......@@@@@.@@@@@....
    .....@@@@@@@@@@@@@...
    .....@@@@@@@@@@@@@...
    .....@@@@@@@@@@@@@...
    .....@@@@@@@@@@@@@...
    ......@@@@@@@@@@@....
    ......@@@@@@@@@@@....
    .......@@@@@@@@@.....
    ........@@@@@@@......
    .........@@@@@.......
    ..........@@@........
    ...........@.........
    .....................
    .....................
    .....................
    .....................
    .....................
    .....................
    .....................
    .....................


# [♠] BLACK SPADE SUIT
u+2660:
0xaa:
    .....................
    .....................
    .....................
    .....................
    .....................
    .....................
    .....................
    .....................
    .....................
    .....................
    ...........@@........
    ..........@@@@.......
    .........@@@@@@......
    ........@@@@@@@@.....
    .......@@@@@@@@@@....
    .......@@@@@@@@@@....
    ......@@@@@@@@@@@@...
    ......@@@@@@@@@@@@...
    ......@@@@@@@@@@@@...
    ......@@@@.@@.@@@@...
    .......@@@.@@.@@@....
    ...........@@........
    ..........@@@@.......
    .....................
    .....................
    .....................
    .....................
    .....................
    .....................
    .....................
    .....................


# [↔] LEFT RIGHT ARROW
u+2194:
0xab:
    .............................
    .............................
    .............................
    .............................
    .............................
    .............................
    .............................
    .............................
    .............................
    .............................
    .............................
    .............................
    .........@............@......
    ........@..............@.....
    .......@................@....
    ......@..................@...
    .....@@@@@@@@@@@@@@@@@@@@@@..
    ......@..................@...
    .......@................@....
    ........@..............@.....
    .........@............@......
    .............................
    .............................
    .............................
    .............................
    .............................
    .............................
    .............................
    .............................
    .............................
    .............................


# [←] LEFTWARDS ARROW
u+2190:
0xac:
    ...........................
    ...........................
    ...........................
    ...........................
    ...........................
    ...........................
    ...........................
    ...........................
    ...........................
    ...........................
    ...........................
    ...........................
    ............@..............
    ...........@...............
    ..........@................
    .........@.................
    ........@@@@@@@@@@@@@@@@@@@
    .........@.................
    ..........@................
    ...........@...............
    ............@..............
    ...........................
    ...........................
    ...........................
    ...........................
    ...........................
    ...........................
    ...........................
    ...........................
    ...........................
    ...........................


# [↑] UPWARDS ARROW
u+2191:
0xad:
    .................
    .................
    .................
    .................
    .................
    .................
    ........@........
    .......@@@.......
    ......@.@.@......
    .....@..@..@.....
    ....@...@...@....
    ........@........
    ........@........
    ........@........
    ........@........
    ........@........
    ........@........
    ........@........
    ........@........
    ........@........
    ........@........
    ........@........
    ........@........
    ........@........
    ........@........
    ........@........
    ........@........
    .................
    .................
    .................
    .................


# [→] RIGHTWARDS ARROW
u+2192:
0xae:
    ...........................
    ...........................
    ...........................
    ...........................
    ...........................
    ...........................
    ...........................
    ...........................
    ...........................
    ...........................
    ...........................
    ...........................
    .................@.........
    ..................@........
    ...................@.......
    ....................@......
    ...@@@@@@@@@@@@@@@@@@@.....
    ....................@......
    ...................@.......
    ..................@........
    .................@.........
    ...........................
    ...........................
    ...........................
    ...........................
    ...........................
    ...........................
    ...........................
    ...........................
    ...........................
    ...........................


# [↓] DOWNWARDS ARROW
u+2193:
0xaf:
    .................
    .................
    .................
    .................
    .................
    ........@........
    ........@........
    ........@........
    ........@........
    ........@........
    ........@........
    ........@........
    ........@........
    ........@........
    ........@........
    ........@........
    ........@........
    ........@........
    ....@...@...@....
    .....@..@..@.....
    ......@.@.@......
    .......@@@.......
    ........@........
    .................
    .................
    .................
    .................
    .................
    .................
    .................
    .................


# [°] DEGREE SIGN
u+00b0:
0xb0:
    .............
    .............
    .............
    .............
    .............
    .............
    ......@@@....
    .....@...@...
    ....@.....@..
    ....@.....@..
    ....@.....@..
    .....@...@...
    ......@@@....
    .............
    .............
    .............
    .............
    .............
    .............
    .............
    .............
    .............
    .............
    .............
    .............
    .............
    .............
    .............
    .............
    .............
    .............


# [±] PLUS-MINUS SIGN
u+00b1:
0xb1:
    .................
    .................
    .................
    .................
    .................
    .................
    .................
    .................
    .........@.......
    .........@.......
    .........@.......
    .........@.......
    .........@.......
    .........@.......
    ...@@@@@@@@@@@@@.
    .........@.......
    .........@.......
    .........@.......
    .........@.......
    .........@.......
    .........@.......
    .................
    ...@@@@@@@@@@@@@.
    .................
    .................
    .................
    .................
    .................
    .................
    .................
    .................


# [″] DOUBLE PRIME
u+2033:
0xb2:
    .............
    .............
    .............
    .............
    .............
    .............
    ......@..@...
    ......@..@...
    .....@..@....
    .....@..@....
    .............
    .............
    .............
    .............
    .............
    .............
    .............
    .............
    .............
    .............
    .............
    .............
    .............
    .............
    .............
    .............
    .............
    .............
    .............
    .............
    .............


# [≥] GREATER-THAN OR EQUAL TO
u+2265:
0xb3:
    ................
    ................
    ................
    ................
    ................
    ................
    ................
    ................
    ................
    ................
    ................
    ................
    ....@@..........
    ......@@........
    ........@@......
    ..........@@....
    ............@@..
    ..........@@....
    ........@@......
    ......@@........
    ....@@..........
    ................
    ....@@@@@@@@@@..
    ................
    ................
    ................
    ................
    ................
    ................
    ................
    ................


# [×] MULTIPLICATION SIGN
u+00d7:
0xb4:
    ................
    ................
    ................
    ................
    ................
    ................
    ................
    ................
    ................
    ................
    ...@...........@
    ....@.........@.
    .....@.......@..
    ......@.....@...
    .......@...@....
    ........@.@.....
    .........@......
    ........@.@.....
    .......@...@....
    ......@.....@...
    .....@.......@..
    ....@.........@.
    ...@...........@
    ................
    ................
    ................
    ................
    ................
    ................
    ................
    ................


# [∝] PROPORTIONAL TO
u+221d:
0xb5:
    ....................
    ....................
    ....................
    ....................
    ....................
    ....................
    ....................
    ....................
    ....................
    ....................
    ....................
    ....................
    ....................
    ....................
    ......@@@@.....@@@@.
    .....@....@...@.....
    ....@......@.@......
    ....@.......@.......
    ....@......@.@......
    .....@....@...@.....
    ......@@@@.....@@@@.
    ....................
    ....................
    ....................
    ....................
    ....................
    ....................
    ....................
    ....................
    ....................
    ....................


# [∂] PARTIAL DIFFERENTIAL
u+2202:
0xb6:
    ...............
    ...............
    ...............
    ...............
    ...............
    ...............
    ...............
    ......@@@......
    .........@@....
    ..........@@...
    ..........@@...
    ...........@@..
    ...........@@..
    .......@@@.@@..
    .....@@@@@@@@..
    .....@@....@@..
    ....@@.....@@..
    ....@@.....@@..
    ....@@.....@@..
    ....@@....@@...
    ....@@....@@...
    .....@@..@@....
    ......@@@@.....
    ...............
    ...............
    ...............
    ...............
    ...............
    ...............
    ...............
    ...............


# [•] BULLET
u+2022:
0xb7:
    ...............
    ...............
    ...............
    ...............
    ...............
    ...............
    ...............
    ...............
    ...............
    ...............
    .......@@@@....
    .....@@@@@@@@..
    .....@@@@@@@@..
    ....@@@@@@@@@@.
    ....@@@@@@@@@@.
    ....@@@@@@@@@@.
    ....@@@@@@@@@@.
    .....@@@@@@@@..
    .....@@@@@@@@..
    .......@@@@....
    ...............
    ...............
    ...............
    ...............
    ...............
    ...............
    ...............
    ...............
    ...............
    ...............
    ...............


# [÷] DIVISION SIGN
u+00f7:
0xb8:
    ................
    ................
    ................
    ................
    ................
    ................
    ................
    ................
    ................
    ................
    ................
    ................
    ........@@......
    ........@@......
    ................
    ................
    ...@@@@@@@@@@@@.
    ................
    ................
    ........@@......
    ........@@......
    ................
    ................
    ................
    ................
    ................
    ................
    ................
    ................
    ................
    ................


# [≠] NOT EQUAL TO
u+2260:
0xb9:
    .................
    .................
    .................
    .................
    .................
    .................
    .................
    .................
    .................
    .................
    .................
    .................
    .............@...
    ............@....
    ....@@@@@@@@@@@..
    ..........@......
    .........@.......
    ........@........
    ....@@@@@@@@@@@..
    ......@..........
    .....@...........
    .................
    .................
    .................
    .................
    .................
    .................
    .................
    .................
    .................
    .................


# [≡] IDENTICAL TO
u+2261:
0xba:
    ................
    ................
    ................
    ................
    ................
    ................
    ................
    ................
    ................
    ................
    ................
    ................
    ................
    ...@@@@@@@@@@@@.
    ................
    ................
    ...@@@@@@@@@@@@.
    ................
    ................
    ...@@@@@@@@@@@@.
    ................
    ................
    ................
    ................
    ................
    ................
    ................
    ................
    ................
    ................
    ................


# [≈] ALMOST EQUAL TO
u+2248:
0xbb:
    ................
    ................
    ................
    ................
    ................
    ................
    ................
    ................
    ................
    ................
    ................
    ................
    ................
    ......@@@.....@.
    .....@...@...@..
    ....@.....@@@...
    ................
    ......@@@.....@.
    .....@...@...@..
    ....@.....@@@...
    ................
    ................
    ................
    ................
    ................
    ................
    ................
    ................
    ................
    ................
    ................


# […] HORIZONTAL ELLIPSIS
u+2026:
0xbc:
    ...........................
    ...........................
    ...........................
    ...........................
    ...........................
    ...........................
    ...........................
    ...........................
    ...........................
    ...........................
    ...........................
    ...........................
    ...........................
    ...........................
    ...........................
    ...........................
    ...........................
    ...........................
    ...........................
    ...........................
    ...........................
    .....@@......@@......@@....
    .....@@......@@......@@....
    ...........................
    ...........................
    ...........................
    ...........................
    ...........................
    ...........................
    ...........................
    ...........................


# [⏐] VERTICAL LINE EXTENSION
u+23d0:
0xbd:
    .................
    .................
    .................
    ........@........
    ........@........
    ........@........
    ........@........
    ........@........
    ........@........
    ........@........
    ........@........
    ........@........
    ........@........
    ........@........
    ........@........
    ........@........
    ........@........
    ........@........
    ........@........
    ........@........
    ........@........
    ........@........
    ........@........
    ........@........
    ........@........
    ........@........
    ........@........
    ........@........
    ........@........
    .................
    .................


# [⎯] HORIZONTAL LINE EXTENSION
u+23af:
0xbe:
    ...........................
    ...........................
    ...........................
    ...........................
    ...........................
    ...........................
    ...........................
    ...........................
    ...........................
    ...........................
    ...........................
    ...........................
    ...........................
    ...........................
    ...........................
    ...........................
    ...@@@@@@@@@@@@@@@@@@@@@@@@
    ...........................
    ...........................
    ...........................
    ...........................
    ...........................
    ...........................
    ...........................
    ...........................
    ...........................
    ...........................
    ...........................
    ...........................
    ...........................
    ...........................


# [↵] DOWNWARDS ARROW WITH CORNER LEFTWARDS
u+21b5:
0xbf:
    ...................
    ...................
    ...................
    ...................
    ...................
    ...................
    ...................
    ...................
    ................@..
    ................@..
    ................@..
    ................@..
    ................@..
    ................@..
    ................@..
    ................@..
    ................@..
    ................@..
    .....@..........@..
    ....@@..........@..
    ...@@@@@@@@@@@@@@..
    ....@@.............
    .....@.............
    ...................
    ...................
    ...................
    ...................
    ...................
    ...................
    ...................
    ...................


# [ℵ] ALEF SYMBOL
u+2135:
0xc0:
    .......................
    .......................
    .......................
    .......................
    .......................
    .......................
    .......................
    .......................
    ........@......@.......
    .......@@.....@@@@.....
    .......@@@....@@@@@....
    .......@@@@....@@@@....
    ........@@@@....@@.....
    .........@@@@...@......
    ..........@@@@.@.......
    .........@.@@@@@.......
    ........@@..@@@@.......
    .......@@@...@@@@......
    .......@@@....@@@@.....
    .......@@@@....@@@@....
    ........@@@@....@@@....
    ........@@@@.....@@....
    .......@@@@.......@....
    .......................
    .......................
    .......................
    .......................
    .......................
    .......................
    .......................
    .......................


# [ℑ] BLACK-LETTER CAPITAL I
u+2111:
0xc1:
    ....................
    ....................
    ....................
    ....................
    ....................
    ........@@@@@@......
    ......@@@@@@@@@@@...
    ......@@@.....@@@@..
    .....@@........@@...
    .....@........@@....
    .....@........@.....
    .....@.......@@.....
    .....@@......@@.....
    ......@@@....@@.....
    .......@@@...@@@....
    ..............@@....
    ..............@@@...
    ...............@@@..
    ................@@..
    .................@..
    ......@@@@.......@..
    .....@@@@@@@....@...
    ....@....@@@@@@@....
    ...........@@@@.....
    ....................
    ....................
    ....................
    ....................
    ....................
    ....................
    ....................


# [ℜ] BLACK-LETTER CAPITAL R
u+211c:
0xc2:
    .......................
    .......................
    .......................
    .......................
    .......................
    .......@@@@....@@@.....
    .....@@@@@@@..@@@@@....
    ....@@...@@@@@..@@@@...
    ....@.....@@@....@@@...
    ....@......@@....@@....
    ....@@.....@@...@@.....
    ....@@@....@@..@@......
    .....@@@...@@.@@.......
    ......@@@..@@.@@@......
    .......@@..@@..@@@.....
    .......@...@@...@@@....
    ...........@@...@@@....
    ...........@@...@@@....
    ...........@@...@@@....
    .......@@..@@...@@@....
    ......@@@@@@....@@@@@..
    .....@.@@@@.....@@@@...
    ........@@.......@@....
    .......................
    .......................
    .......................
    .......................
    .......................
    .......................
    .......................
    .......................


# [℘] SCRIPT CAPITAL P
u+2118:
0xc3:
    ...........................
    ...........................
    ...........................
    ...........................
    ...........................
    ...........................
    ...........................
    ...........................
    ...........................
    ...........................
    .............@.............
    ...........@@.....@@@@.....
    ..........@@....@@@@@@@....
    .........@@....@@....@@@...
    .........@@...@.......@@...
    ........@@@..@........@@...
    ........@@@.@.........@@...
    ........@@@.@..@@.....@@...
    ........@@@@..@@@....@@....
    .........@@@..@......@@....
    .........@@@..@.....@@.....
    ........@.@@@..@...@@......
    ........@..@@...@@@........
    .......@...@@..............
    .......@...@@..............
    .......@...@@..............
    .......@..@@...............
    ........@@@................
    ...........................
    ...........................
    ...........................


# [⊗] CIRCLED TIMES
u+2297:
0xc4:
    ......................
    ......................
    ......................
    ......................
    ......................
    ......................
    ......................
    .........@@@@@@.......
    .......@@......@@.....
    ......@@........@@....
    .....@@..........@@...
    .....@..@@....@@..@...
    ....@...@@@..@@@...@..
    ....@....@@@@@@....@..
    ....@.....@@@@.....@..
    ....@.....@@@@.....@..
    ....@....@@@@@@....@..
    ....@...@@@..@@@...@..
    .....@..@@....@@..@...
    .....@@..........@@...
    ......@@........@@....
    .......@@......@@.....
    .........@@@@@@.......
    ......................
    ......................
    ......................
    ......................
    ......................
    ......................
    ......................
    ......................


# [⊕] CIRCLED PLUS
u+2295:
0xc5:
    ......................
    ......................
    ......................
    ......................
    ......................
    ......................
    ......................
    .........@@@@@@.......
    .......@@......@@.....
    ......@@...@@...@@....
    .....@@....@@....@@...
    .....@.....@@.....@...
    ....@......@@......@..
    ....@......@@......@..
    ....@.@@@@@@@@@@@@.@..
    ....@.@@@@@@@@@@@@.@..
    ....@......@@......@..
    ....@......@@......@..
    .....@.....@@.....@...
    .....@@....@@....@@...
    ......@@...@@...@@....
    .......@@......@@.....
    .........@@@@@@.......
    ......................
    ......................
    ......................
    ......................
    ......................
    ......................
    ......................
    ......................


# [∅] EMPTY SET
u+2205:
0xc6:
    .......................
    .......................
    .......................
    .......................
    .......................
    .......................
    .........@@@@@@@....@..
    .......@@.......@@.@...
    ......@@.........@@....
    .....@@..........@@@...
    .....@..........@..@...
    ....@..........@....@..
    ....@.........@.....@..
    ....@........@......@..
    ....@.......@.......@..
    ....@......@........@..
    ....@.....@.........@..
    ....@....@..........@..
    .....@..@..........@...
    .....@@@..........@@...
    ......@@.........@@....
    .....@.@@.......@@.....
    ....@....@@@@@@@.......
    .......................
    .......................
    .......................
    .......................
    .......................
    .......................
    .......................
    .......................


# [∩] INTERSECTION
u+2229:
0xc7:
    .....................
    .....................
    .....................
    .....................
    .....................
    .....................
    .....................
    .....................
    .....................
    .....................
    .........@@@@@@......
    .......@@......@@....
    ......@@........@@...
    .....@@..........@@..
    .....@............@..
    ....@..............@.
    ....@..............@.
    ....@..............@.
    ....@..............@.
    ....@..............@.
    ....@..............@.
    ....@..............@.
    ....@..............@.
    .....................
    .....................
    .....................
    .....................
    .....................
    .....................
    .....................
    .....................


# [∪] UNION
u+222a:
0xc8:
    .....................
    .....................
    .....................
    .....................
    .....................
    .....................
    .....................
    .....................
    .....................
    .....................
    ....@..............@.
    ....@..............@.
    ....@..............@.
    ....@..............@.
    ....@..............@.
    ....@..............@.
    ....@..............@.
    ....@..............@.
    .....@............@..
    .....@@..........@@..
    ......@@........@@...
    .......@@......@@....
    .........@@@@@@......
    .....................
    .....................
    .....................
    .....................
    .....................
    .....................
    .....................
    .....................


# [⊃] SUPERSET OF
u+2283:
0xc9:
    ....................
    ....................
    ....................
    ....................
    ....................
    ....................
    ....................
    ....................
    ....................
    ....................
    ....@@@@@@@@@@@.....
    ...............@@...
    ................@@..
    .................@..
    ..................@.
    ..................@.
    ..................@.
    ..................@.
    ..................@.
    .................@..
    ................@@..
    ...............@@...
    ....@@@@@@@@@@@.....
    ....................
    ....................
    ....................
    ....................
    ....................
    ....................
    ....................
    ....................


# [⊇] SUPERSET OF OR EQUAL TO
u+2287:
0xca:
    ....................
    ....................
    ....................
    ....................
    ....................
    ....................
    ....................
    ....................
    ....................
    ....................
    ....@@@@@@@@@@@.....
    ...............@@...
    ................@@..
    .................@..
    ..................@.
    ..................@.
    ..................@.
    ..................@.
    ..................@.
    .................@..
    ................@@..
    ...............@@...
    ....@@@@@@@@@@@.....
    ....................
    ....................
    ....@@@@@@@@@@@@@@@.
    ....................
    ....................
    ....................
    ....................
    ....................


# [⊄] NOT A SUBSET OF
u+2284:
0xcb:
    ....................
    ....................
    ....................
    ....................
    ....................
    ....................
    ....................
    ....................
    ....................
    ................@...
    ........@@@@@@@@@@@.
    ......@@.......@....
    .....@@.......@.....
    .....@........@.....
    ....@........@......
    ....@........@......
    ....@.......@.......
    ....@.......@.......
    ....@......@........
    .....@.....@........
    .....@@...@.........
    ......@@..@.........
    ........@@@@@@@@@@@.
    .........@..........
    ....................
    ....................
    ....................
    ....................
    ....................
    ....................
    ....................


# [⊂] SUBSET OF
u+2282:
0xcc:
    ....................
    ....................
    ....................
    ....................
    ....................
    ....................
    ....................
    ....................
    ....................
    ....................
    ........@@@@@@@@@@@.
    ......@@............
    .....@@.............
    .....@..............
    ....@...............
    ....@...............
    ....@...............
    ....@...............
    ....@...............
    .....@..............
    .....@@.............
    ......@@............
    ........@@@@@@@@@@@.
    ....................
    ....................
    ....................
    ....................
    ....................
    ....................
    ....................
    ....................


# [⊆] SUBSET OF OR EQUAL TO
u+2286:
0xcd:
    ....................
    ....................
    ....................
    ....................
    ....................
    ....................
    ....................
    ....................
    ....................
    ....................
    ........@@@@@@@@@@@.
    ......@@............
    .....@@.............
    .....@..............
    ....@...............
    ....@...............
    ....@...............
    ....@...............
    ....@...............
    .....@..............
    .....@@.............
    ......@@............
    ........@@@@@@@@@@@.
    ....................
    ....................
    ....@@@@@@@@@@@@@@@.
    ....................
    ....................
    ....................
    ....................
    ....................


# [∈] ELEMENT OF
u+2208:
0xce:
    ....................
    ....................
    ....................
    ....................
    ....................
    ....................
    ....................
    ....................
    ....................
    ....................
    ........@@@@@@@@@...
    ......@@............
    ......@.............
    .....@..............
    .....@..............
    .....@..............
    .....@@@@@@@@@@@@...
    .....@..............
    .....@..............
    .....@..............
    ......@.............
    ......@@............
    ........@@@@@@@@@...
    ....................
    ....................
    ....................
    ....................
    ....................
    ....................
    ....................
    ....................


# [∉] NOT AN ELEMENT OF
u+2209:
0xcf:
    ....................
    ....................
    ....................
    ....................
    ....................
    ....................
    ....................
    ....................
    ....................
    ...............@....
    ........@@@@@@@@@...
    ......@@......@.....
    ......@......@......
    .....@.......@......
    .....@......@.......
    .....@......@.......
    .....@@@@@@@@@@@@...
    .....@.....@........
    .....@....@.........
    .....@....@.........
    ......@..@..........
    ......@@.@..........
    ........@@@@@@@@@...
    ........@...........
    ....................
    ....................
    ....................
    ....................
    ....................
    ....................
    ....................


# [∠] ANGLE
u+2220:
0xd0:
    .....................
    .....................
    .....................
    .....................
    .....................
    .....................
    .....................
    ...................@.
    ..................@..
    .................@...
    ................@....
    ...............@.....
    ..............@......
    .............@.......
    ............@........
    ...........@.........
    ..........@..........
    .........@...........
    ........@............
    .......@.............
    ......@..............
    .....@...............
    ....@@@@@@@@@@@@@@@..
    .....................
    .....................
    .....................
    .....................
    .....................
    .....................
    .....................
    .....................


# [∇] NABLA
u+2207:
0xd1:
    ....................
    ....................
    ....................
    ....................
    ....................
    ....................
    ....................
    ....@@@@@@@@@@@@@@@.
    ....@@............@.
    .....@@..........@..
    .....@@..........@..
    ......@@........@...
    ......@@........@...
    .......@@......@....
    .......@@......@....
    ........@@....@.....
    ........@@....@.....
    .........@@..@......
    .........@@..@......
    ..........@@@.......
    ..........@@@.......
    ...........@........
    ...........@........
    ....................
    ....................
    ....................
    ....................
    ....................
    ....................
    ....................
    ....................


# [®] REGISTERED SIGN
u+00ae:
0xd2:
    ......................
    ......................
    ......................
    ......................
    ......................
    ......................
    ......................
    .........@@@@@@.......
    .......@@......@@.....
    ......@@........@@....
    .....@@..........@@...
    .....@..@@@@@@....@...
    ....@....@@..@@....@..
    ....@....@@..@@....@..
    ....@....@@..@@....@..
    ....@....@@@@@.....@..
    ....@....@@.@@.....@..
    ....@....@@..@@....@..
    .....@..@@@@..@@..@...
    .....@@..........@@...
    ......@@........@@....
    .......@@......@@.....
    .........@@@@@@.......
    ......................
    ......................
    ......................
    ......................
    ......................
    ......................
    ......................
    ......................


# [©] COPYRIGHT SIGN
u+00a9:
0xd3:
    ......................
    ......................
    ......................
    ......................
    ......................
    ......................
    ......................
    .........@@@@@@.......
    .......@@......@@.....
    ......@@........@@....
    .....@@..........@@...
    .....@....@@@.@...@...
    ....@....@@..@@....@..
    ....@...@@....@....@..
    ....@...@@.........@..
    ....@...@@.........@..
    ....@...@@.........@..
    ....@....@@...@....@..
    .....@....@@@@....@...
    .....@@..........@@...
    ......@@........@@....
    .......@@......@@.....
    .........@@@@@@.......
    ......................
    ......................
    ......................
    ......................
    ......................
    ......................
    ......................
    ......................


# [™] TRADE MARK SIGN
u+2122:
0xd4:
    .........................
    .........................
    .........................
    .........................
    .........................
    .........................
    .........................
    ....@@@@@@@.@@@.....@@@..
    ....@..@..@..@@.....@@...
    .......@.....@.@...@.@...
    .......@.....@.@...@.@...
    .......@.....@..@.@..@...
    .......@.....@..@.@..@...
    .......@.....@...@...@...
    .......@.....@...@...@...
    ......@@@...@@@.....@@@..
    .........................
    .........................
    .........................
    .........................
    .........................
    .........................
    .........................
    .........................
    .........................
    .........................
    .........................
    .........................
    .........................
    .........................
    .........................


# [∏] N-ARY PRODUCT
u+220f:
0xd5:
    .......................
    .......................
    .......................
    .......................
    .......................
    .....@@@@@@@@@@@@@@@@..
    .......@@........@@....
    .......@@........@@....
    .......@@........@@....
    .......@@........@@....
    .......@@........@@....
    .......@@........@@....
    .......@@........@@....
    .......@@........@@....
    .......@@........@@....
    .......@@........@@....
    .......@@........@@....
    .......@@........@@....
    .......@@........@@....
    .......@@........@@....
    .......@@........@@....
    .......@@........@@....
    .......@@........@@....
    .......@@........@@....
    .......@@........@@....
    .....@@@@@@....@@@@@@..
    .......................
    .......................
    .......................
    .......................
    .......................


# [√] SQUARE ROOT
u+221a:
0xd6:
    ................
    ................
    ................
    ................
    ................
    ...............@
    ...............@
    ..............@.
    ..............@.
    .............@..
    .............@..
    ............@...
    ............@...
    ...........@....
    ...........@....
    ....@.....@.....
    ...@@.....@.....
    .....@...@......
    .....@...@......
    ......@.@.......
    ......@.@.......
    .......@........
    .......@........
    ................
    ................
    ................
    ................
    ................
    ................
    ................
    ................


# [⋅] DOT OPERATOR
u+22c5:
0xd7:
    ................
    ................
    ................
    ................
    ................
    ................
    ................
    ................
    ................
    ................
    ................
    ................
    ................
    ................
    ................
    ........@@......
    ........@@......
    ................
    ................
    ................
    ................
    ................
    ................
    ................
    ................
    ................
    ................
    ................
    ................
    ................
    ................


# [¬] NOT SIGN
u+00ac:
0xd8:
    .....................
    .....................
    .....................
    .....................
    .....................
    .....................
    .....................
    .....................
    .....................
    .....................
    .....................
    .....................
    .....................
    .....................
    .....................
    .....................
    ....@@@@@@@@@@@@@@@@.
    ...................@.
    ...................@.
    ...................@.
    ...................@.
    ...................@.
    ...................@.
    .....................
    .....................
    .....................
    .....................
    .....................
    .....................
    .....................
    .....................


# [∧] LOGICAL AND
u+2227:
0xd9:
    ..................
    ..................
    ..................
    ..................
    ..................
    ..................
    ..................
    ..................
    ..................
    ..................
    ..................
    ..........@.......
    ..........@.......
    .........@.@......
    .........@.@......
    ........@...@.....
    ........@...@.....
    .......@.....@....
    .......@.....@....
    ......@.......@...
    ......@.......@...
    .....@.........@..
    .....@.........@..
    ..................
    ..................
    ..................
    ..................
    ..................
    ..................
    ..................
    ..................


# [∨] LOGICAL OR
u+2228:
0xda:
    ..................
    ..................
    ..................
    ..................
    ..................
    ..................
    ..................
    ..................
    ..................
    ..................
    ..................
    .....@.........@..
    .....@.........@..
    ......@.......@...
    ......@.......@...
    .......@.....@....
    .......@.....@....
    ........@...@.....
    ........@...@.....
    .........@.@......
    .........@.@......
    ..........@.......
    ..........@.......
    ..................
    ..................
    ..................
    ..................
    ..................
    ..................
    ..................
    ..................


# [⇔] LEFT RIGHT DOUBLE ARROW
u+21d4:
0xdb:
    .............................
    .............................
    .............................
    .............................
    .............................
    .............................
    .............................
    .............................
    .............................
    .............................
    .........@..........@........
    ........@............@.......
    .......@..............@......
    ......@@@@@@@@@@@@@@@@@@.....
    .....@..................@....
    ....@....................@...
    ...@......................@..
    ....@....................@...
    .....@..................@....
    ......@@@@@@@@@@@@@@@@@@.....
    .......@..............@......
    ........@............@.......
    .........@..........@........
    .............................
    .............................
    .............................
    .............................
    .............................
    .............................
    .............................
    .............................


# [⇐] LEFTWARDS DOUBLE ARROW
u+21d0:
0xdc:
    ...........................
    ...........................
    ...........................
    ...........................
    ...........................
    ...........................
    ...........................
    ...........................
    ...........................
    ...........................
    ..........@................
    .........@.................
    ........@..................
    .......@@@@@@@@@@@@@@@@@@@.
    ......@....................
    .....@.....................
    ....@......................
    .....@.....................
    ......@....................
    .......@@@@@@@@@@@@@@@@@@@.
    ........@..................
    .........@.................
    ..........@................
    ...........................
    ...........................
    ...........................
    ...........................
    ...........................
    ...........................
    ...........................
    ...........................


# [⇑] UPWARDS DOUBLE ARROW
u+21d1:
0xdd:
    ..................
    ..........@.......
    .........@.@......
    ........@...@.....
    .......@.....@....
    ......@@.....@@...
    .....@.@.....@.@..
    ....@..@.....@..@.
    .......@.....@....
    .......@.....@....
    .......@.....@....
    .......@.....@....
    .......@.....@....
    .......@.....@....
    .......@.....@....
    .......@.....@....
    .......@.....@....
    .......@.....@....
    .......@.....@....
    .......@.....@....
    .......@.....@....
    .......@.....@....
    .......@.....@....
    ..................
    ..................
    ..................
    ..................
    ..................
    ..................
    ..................
    ..................


# [⇒] RIGHTWARDS DOUBLE ARROW
u+21d2:
0xde:
    ...........................
    ...........................
    ...........................
    ...........................
    ...........................
    ...........................
    ...........................
    ...........................
    ...........................
    ...........................
    ...................@.......
    ....................@......
    .....................@.....
    ....@@@@@@@@@@@@@@@@@@@....
    .......................@...
    ........................@..
    .........................@.
    ........................@..
    .......................@...
    ....@@@@@@@@@@@@@@@@@@@....
    .....................@.....
    ....................@......
    ...................@.......
    ...........................
    ...........................
    ...........................
    ...........................
    ...........................
    ...........................
    ...........................
    ...........................


# [⇓] DOWNWARDS DOUBLE ARROW
u+21d3:
0xdf:
    ..................
    .......@.....@....
    .......@.....@....
    .......@.....@....
    .......@.....@....
    .......@.....@....
    .......@.....@....
    .......@.....@....
    .......@.....@....
    .......@.....@....
    .......@.....@....
    .......@.....@....
    .......@.....@....
    .......@.....@....
    .......@.....@....
    .......@.....@....
    ....@..@.....@..@.
    .....@.@.....@.@..
    ......@@.....@@...
    .......@.....@....
    ........@...@.....
    .........@.@......
    ..........@.......
    ..................
    ..................
    ..................
    ..................
    ..................
    ..................
    ..................
    ..................


# [◊] LOZENGE
u+25ca:
0xe0:
    ...............
    ...............
    ...............
    ...............
    ...............
    ...............
    ...............
    ........@......
    ........@......
    .......@.@.....
    .......@.@.....
    ......@...@....
    .....@.....@...
    .....@.....@...
    ....@.......@..
    ....@.......@..
    .....@.....@...
    .....@.....@...
    ......@...@....
    .......@.@.....
    .......@.@.....
    ........@......
    ........@......
    ...............
    ...............
    ...............
    ...............
    ...............
    ...............
    ...............
    ...............


# [〈] LEFT ANGLE BRACKET
u+3008:
0xe1:
    ...........
    ...........
    ...........
    ...........
    ...........
    ...........
    ...........
    .........@.
    .........@.
    ........@..
    ........@..
    .......@...
    .......@...
    ......@....
    ......@....
    .....@.....
    .....@.....
    ....@......
    ....@......
    ....@......
    .....@.....
    .....@.....
    ......@....
    ......@....
    .......@...
    .......@...
    ........@..
    ........@..
    .........@.
    .........@.
    ...........

u+00ae,u+f87f:
0xe2:
    ......................
    ......................
    ......................
    ......................
    ......................
    ......................
    ......................
    .........@@@@@@.......
    .......@@......@@.....
    ......@@........@@....
    .....@@..@@@@@...@@...
    .....@...@....@...@...
    ....@....@....@....@..
    ....@....@....@....@..
    ....@....@....@....@..
    ....@....@@@@@.....@..
    ....@....@....@....@..
    ....@....@....@....@..
    .....@...@....@...@...
    .....@@..@....@..@@...
    ......@@........@@....
    .......@@......@@.....
    .........@@@@@@.......
    ......................
    ......................
    ......................
    ......................
    ......................
    ......................
    ......................
    ......................

u+00a9,u+f87f:
0xe3:
    .....................
    .....................
    .....................
    .....................
    .....................
    .....................
    .....................
    .........@@@@@@......
    .......@@......@@....
    ......@@........@@...
    .....@@...@@@....@@..
    .....@...@...@....@..
    ....@...@.....@....@.
    ....@...@..........@.
    ....@...@..........@.
    ....@...@..........@.
    ....@...@..........@.
    ....@...@.....@....@.
    .....@...@...@....@..
    .....@@...@@@....@@..
    ......@@........@@...
    .......@@......@@....
    .........@@@@@@......
    .....................
    .....................
    .....................
    .....................
    .....................
    .....................
    .....................
    .....................

u+2122,u+f87f:
0xe4:
    ......................
    ......................
    ......................
    ......................
    ......................
    ......................
    ......................
    ...@@@@@@@.@@.....@@..
    ......@....@@.....@@..
    ......@....@.@...@.@..
    ......@....@.@...@.@..
    ......@....@..@.@..@..
    ......@....@..@.@..@..
    ......@....@...@...@..
    ......@....@...@...@..
    ......@....@.......@..
    ......................
    ......................
    ......................
    ......................
    ......................
    ......................
    ......................
    ......................
    ......................
    ......................
    ......................
    ......................
    ......................
    ......................
    ......................


# [∑] N-ARY SUMMATION
u+2211:
0xe5:
    ....................
    ....................
    ....................
    ....................
    ....................
    ....................
    ....@@@@@@@@@@@@@@@.
    .....@@..........@@.
    ......@@..........@.
    .......@@.........@.
    ........@@..........
    .........@@.........
    ..........@@........
    ...........@@.......
    ............@@......
    .............@@.....
    .............@......
    ............@.......
    ...........@........
    ..........@.........
    .........@..........
    ........@.........@.
    .......@..........@.
    ......@..........@@.
    .....@@@@@@@@@@@@@@.
    ....@@@@@@@@@@@@@@@.
    ....................
    ....................
    ....................
    ....................
    ....................


# [⎛] LEFT PARENTHESIS UPPER HOOK
u+239b:
0xe6:
    ............
    ...........@
    ..........@.
    .........@..
    .........@..
    ........@...
    ........@...
    .......@....
    .......@....
    .......@....
    ......@.....
    ......@.....
    ......@.....
    ......@.....
    .....@......
    .....@......
    .....@......
    .....@......
    .....@......
    .....@......
    .....@......
    .....@......
    .....@......
    .....@......
    .....@......
    .....@......
    .....@......
    .....@......
    .....@......
    .....@......
    .....@......


# [⎜] LEFT PARENTHESIS EXTENSION
u+239c:
0xe7:
    .....@......
    .....@......
    .....@......
    .....@......
    .....@......
    .....@......
    .....@......
    .....@......
    .....@......
    .....@......
    .....@......
    .....@......
    .....@......
    .....@......
    .....@......
    .....@......
    .....@......
    .....@......
    .....@......
    .....@......
    .....@......
    .....@......
    .....@......
    .....@......
    .....@......
    .....@......
    .....@......
    .....@......
    .....@......
    .....@......
    .....@......


# [⎝] LEFT PARENTHESIS LOWER HOOK
u+239d:
0xe8:
    .....@......
    .....@......
    .....@......
    .....@......
    .....@......
    .....@......
    .....@......
    .....@......
    .....@......
    .....@......
    .....@......
    .....@......
    .....@......
    .....@......
    .....@......
    .....@......
    .....@......
    ......@.....
    ......@.....
    ......@.....
    ......@.....
    .......@....
    .......@....
    .......@....
    ........@...
    ........@...
    .........@..
    .........@..
    ..........@.
    ...........@
    ............


# [⎡] LEFT SQUARE BRACKET UPPER CORNER
u+23a1:
0xe9:
    ............
    ...@@@@@@@@.
    ...@........
    ...@........
    ...@........
    ...@........
    ...@........
    ...@........
    ...@........
    ...@........
    ...@........
    ...@........
    ...@........
    ...@........
    ...@........
    ...@........
    ...@........
    ...@........
    ...@........
    ...@........
    ...@........
    ...@........
    ...@........
    ...@........
    ...@........
    ...@........
    ...@........
    ...@........
    ...@........
    ...@........
    ...@........


# [⎢] LEFT SQUARE BRACKET EXTENSION
u+23a2:
0xea:
    ...@........
    ...@........
    ...@........
    ...@........
    ...@........
    ...@........
    ...@........
    ...@........
    ...@........
    ...@........
    ...@........
    ...@........
    ...@........
    ...@........
    ...@........
    ...@........
    ...@........
    ...@........
    ...@........
    ...@........
    ...@........
    ...@........
    ...@........
    ...@........
    ...@........
    ...@........
    ...@........
    ...@........
    ...@........
    ...@........
    ...@........


# [⎣] LEFT SQUARE BRACKET LOWER CORNER
u+23a3:
0xeb:
    ...@........
    ...@........
    ...@........
    ...@........
    ...@........
    ...@........
    ...@........
    ...@........
    ...@........
    ...@........
    ...@........
    ...@........
    ...@........
    ...@........
    ...@........
    ...@........
    ...@........
    ...@........
    ...@........
    ...@........
    ...@........
    ...@........
    ...@........
    ...@........
    ...@@@@@@@@.
    ............
    ............
    ............
    ............
    ............
    ............


# [⎧] LEFT CURLY BRACKET UPPER HOOK
u+23a7:
0xec:
    ...............
    ...........@@@.
    ..........@....
    .........@.....
    ........@......
    ........@......
    ........@......
    ........@......
    ........@......
    ........@......
    ........@......
    ........@......
    ........@......
    ........@......
    ........@......
    ........@......
    ........@......
    ........@......
    ........@......
    ........@......
    ........@......
    ........@......
    ........@......
    ........@......
    ........@......
    ........@......
    ........@......
    ........@......
    ........@......
    ........@......
    ........@......


# [⎨] LEFT CURLY BRACKET MIDDLE PIECE
u+23a8:
0xed:
    ........@......
    ........@......
    ........@......
    ........@......
    ........@......
    ........@......
    ........@......
    ........@......
    ........@......
    ........@......
    ........@......
    ........@......
    ........@......
    .......@.......
    .....@@........
    .......@.......
    ........@......
    ........@......
    ........@......
    ........@......
    ........@......
    ........@......
    ........@......
    ........@......
    ........@......
    ........@......
    ........@......
    ........@......
    ........@......
    ........@......
    ........@......


# [⎩] LEFT CURLY BRACKET LOWER HOOK
u+23a9:
0xee:
    ........@......
    ........@......
    ........@......
    ........@......
    ........@......
    ........@......
    ........@......
    ........@......
    ........@......
    ........@......
    ........@......
    ........@......
    ........@......
    ........@......
    ........@......
    ........@......
    ........@......
    ........@......
    ........@......
    ........@......
    ........@......
    ........@......
    .........@.....
    ..........@....
    ...........@@@.
    ...............
    ...............
    ...............
    ...............
    ...............
    ...............


# [⎪] CURLY BRACKET EXTENSION
u+23aa:
0xef:
    ........@......
    ........@......
    ........@......
    ........@......
    ........@......
    ........@......
    ........@......
    ........@......
    ........@......
    ........@......
    ........@......
    ........@......
    ........@......
    ........@......
    ........@......
    ........@......
    ........@......
    ........@......
    ........@......
    ........@......
    ........@......
    ........@......
    ........@......
    ........@......
    ........@......
    ........@......
    ........@......
    ........@......
    ........@......
    ........@......
    ........@......

u+f8ff:
0xf0:
    ......................
    ......................
    ......................
    ......................
    ...............@@@....
    ..............@@@.....
    .............@@@......
    .............@@.......
    ........@@@@.@.@@@@...
    ......@@@@@@@.@@@@@@..
    .....@@@@@@@@@@@@@@@@.
    .....@@@@@@@@@@@@@@...
    ....@@@@@@@@@@@@@@....
    ....@@@@@@@@@@@@@@....
    ....@@@@@@@@@@@@@@....
    ....@@@@@@@@@@@@@@@...
    ....@@@@@@@@@@@@@@@@@.
    ....@@@@@@@@@@@@@@@@@.
    .....@@@@@@@@@@@@@@@..
    .....@@@@@@@@@@@@@@@..
    ......@@@@@@@@@@@@@...
    .......@@@@@@@@@@@@...
    ........@@@@..@@@.....
    ......................
    ......................
    ......................
    ......................
    ......................
    ......................
    ......................
    ......................


# [〉] RIGHT ANGLE BRACKET
u+3009:
0xf1:
    ...........
    ...........
    ...........
    ...........
    ...........
    ...........
    ...........
    ....@......
    ....@......
    .....@.....
    .....@.....
    ......@....
    ......@....
    .......@...
    .......@...
    ........@..
    ........@..
    .........@.
    .........@.
    .........@.
    ........@..
    ........@..
    .......@...
    .......@...
    ......@....
    ......@....
    .....@.....
    .....@.....
    ....@......
    ....@......
    ...........


# [∫] INTEGRAL
u+222b:
0xf2:
    ..........
    .......@@.
    ......@@..
    ......@...
    ......@...
    ......@...
    ......@...
    ......@...
    ......@...
    ......@...
    ......@...
    ......@...
    ......@...
    ......@...
    ......@...
    ......@...
    ......@...
    ......@...
    ......@...
    ......@...
    ......@...
    ......@...
    ......@...
    .....@@...
    ....@@....
    ..........
    ..........
    ..........
    ..........
    ..........
    ..........


# [⌠] TOP HALF INTEGRAL
u+2320:
0xf3:
    ...................
    ................@@@
    ...............@.@@
    ..............@....
    ..............@....
    .............@.....
    .............@.....
    .............@.....
    ............@......
    ............@......
    ............@......
    ............@......
    ............@......
    ...........@.......
    ...........@.......
    ...........@.......
    ...........@.......
    ...........@.......
    ...........@.......
    ...........@.......
    ...........@.......
    ...........@.......
    ...........@.......
    ...........@.......
    ...........@.......
    ...........@.......
    ...........@.......
    ...........@.......
    ...........@.......
    ...........@.......
    ...........@.......


# [⎮] INTEGRAL EXTENSION
u+23ae:
0xf4:
    ...........@.......
    ...........@.......
    ...........@.......
    ...........@.......
    ...........@.......
    ...........@.......
    ...........@.......
    ...........@.......
    ...........@.......
    ...........@.......
    ...........@.......
    ...........@.......
    ...........@.......
    ...........@.......
    ...........@.......
    ...........@.......
    ...........@.......
    ...........@.......
    ...........@.......
    ...........@.......
    ...........@.......
    ...........@.......
    ...........@.......
    ...........@.......
    ...........@.......
    ...........@.......
    ...........@.......
    ...........@.......
    ...........@.......
    ...........@.......
    ...........@.......


# [⌡] BOTTOM HALF INTEGRAL
u+2321:
0xf5:
    ...........@.......
    ...........@.......
    ...........@.......
    ...........@.......
    ...........@.......
    ...........@.......
    ...........@.......
    ...........@.......
    ...........@.......
    ...........@.......
    ...........@.......
    ...........@.......
    ..........@........
    ..........@........
    ..........@........
    ..........@........
    ..........@........
    .........@.........
    .........@.........
    .........@.........
    ........@..........
    ........@..........
    ....@@.@...........
    ....@@@............
    ...................
    ...................
    ...................
    ...................
    ...................
    ...................
    ...................


# [⎞] RIGHT PARENTHESIS UPPER HOOK
u+239e:
0xf6:
    ............
    ....@.......
    .....@......
    ......@.....
    ......@.....
    .......@....
    .......@....
    ........@...
    ........@...
    ........@...
    .........@..
    .........@..
    .........@..
    .........@..
    ..........@.
    ..........@.
    ..........@.
    ..........@.
    ..........@.
    ..........@.
    ..........@.
    ..........@.
    ..........@.
    ..........@.
    ..........@.
    ..........@.
    ..........@.
    ..........@.
    ..........@.
    ..........@.
    ..........@.


# [⎟] RIGHT PARENTHESIS EXTENSION
u+239f:
0xf7:
    ..........@.
    ..........@.
    ..........@.
    ..........@.
    ..........@.
    ..........@.
    ..........@.
    ..........@.
    ..........@.
    ..........@.
    ..........@.
    ..........@.
    ..........@.
    ..........@.
    ..........@.
    ..........@.
    ..........@.
    ..........@.
    ..........@.
    ..........@.
    ..........@.
    ..........@.
    ..........@.
    ..........@.
    ..........@.
    ..........@.
    ..........@.
    ..........@.
    ..........@.
    ..........@.
    ..........@.


# [⎠] RIGHT PARENTHESIS LOWER HOOK
u+23a0:
0xf8:
    ..........@.
    ..........@.
    ..........@.
    ..........@.
    ..........@.
    ..........@.
    ..........@.
    ..........@.
    ..........@.
    ..........@.
    ..........@.
    ..........@.
    ..........@.
    ..........@.
    ..........@.
    ..........@.
    ..........@.
    .........@..
    .........@..
    .........@..
    .........@..
    ........@...
    ........@...
    ........@...
    .......@....
    .......@....
    ......@.....
    ......@.....
    .....@......
    ....@.......
    ............


# [⎤] RIGHT SQUARE BRACKET UPPER CORNER
u+23a4:
0xf9:
    ............
    ...@@@@@@@@.
    ..........@.
    ..........@.
    ..........@.
    ..........@.
    ..........@.
    ..........@.
    ..........@.
    ..........@.
    ..........@.
    ..........@.
    ..........@.
    ..........@.
    ..........@.
    ..........@.
    ..........@.
    ..........@.
    ..........@.
    ..........@.
    ..........@.
    ..........@.
    ..........@.
    ..........@.
    ..........@.
    ..........@.
    ..........@.
    ..........@.
    ..........@.
    ..........@.
    ..........@.


# [⎥] RIGHT SQUARE BRACKET EXTENSION
u+23a5:
0xfa:
    ..........@.
    ..........@.
    ..........@.
    ..........@.
    ..........@.
    ..........@.
    ..........@.
    ..........@.
    ..........@.
    ..........@.
    ..........@.
    ..........@.
    ..........@.
    ..........@.
    ..........@.
    ..........@.
    ..........@.
    ..........@.
    ..........@.
    ..........@.
    ..........@.
    ..........@.
    ..........@.
    ..........@.
    ..........@.
    ..........@.
    ..........@.
    ..........@.
    ..........@.
    ..........@.
    ..........@.


# [⎦] RIGHT SQUARE BRACKET LOWER CORNER
u+23a6:
0xfb:
    ..........@.
    ..........@.
    ..........@.
    ..........@.
    ..........@.
    ..........@.
    ..........@.
    ..........@.
    ..........@.
    ..........@.
    ..........@.
    ..........@.
    ..........@.
    ..........@.
    ..........@.
    ..........@.
    ..........@.
    ..........@.
    ..........@.
    ..........@.
    ..........@.
    ..........@.
    ..........@.
    ..........@.
    ...@@@@@@@@.
    ............
    ............
    ............
    ............
    ............
    ............


# [⎫] RIGHT CURLY BRACKET UPPER HOOK
u+23ab:
0xfc:
    ...............
    ...@@@.........
    ......@........
    .......@.......
    ........@......
    ........@......
    ........@......
    ........@......
    ........@......
    ........@......
    ........@......
    ........@......
    ........@......
    ........@......
    ........@......
    ........@......
    ........@......
    ........@......
    ........@......
    ........@......
    ........@......
    ........@......
    ........@......
    ........@......
    ........@......
    ........@......
    ........@......
    ........@......
    ........@......
    ........@......
    ........@......


# [⎬] RIGHT CURLY BRACKET MIDDLE PIECE
u+23ac:
0xfd:
    ........@......
    ........@......
    ........@......
    ........@......
    ........@......
    ........@......
    ........@......
    ........@......
    ........@......
    ........@......
    ........@......
    ........@......
    ........@......
    .........@.....
    ..........@@...
    .........@.....
    ........@......
    ........@......
    ........@......
    ........@......
    ........@......
    ........@......
    ........@......
    ........@......
    ........@......
    ........@......
    ........@......
    ........@......
    ........@......
    ........@......
    ........@......


# [⎭] RIGHT CURLY BRACKET LOWER HOOK
u+23ad:
0xfe:
    ........@......
    ........@......
    ........@......
    ........@......
    ........@......
    ........@......
    ........@......
    ........@......
    ........@......
    ........@......
    ........@......
    ........@......
    ........@......
    ........@......
    ........@......
    ........@......
    ........@......
    ........@......
    ........@......
    ........@......
    ........@......
    ........@......
    .......@.......
    ......@........
    ...@@@.........
    ...............
    ...............
    ...............
    ...............
    ...............
    ...............

0xff:
    ...
    ...
    ...
    ...
    ...
    ...
    ...
    ...
    ...
    ...
    ...
    ...
    ...
    ...
    ...
    ...
    ...
    ...
    ...
    ...
    ...
    ...
    ...
    ...
    ...
    ...
    ...
    ...
    ...
    ...
    ...

missing:
    ....
    ....
    ....
    ....
    ....
    ....
    ....
    @@@@
    @..@
    @..@
    @..@
    @..@
    @..@
    @..@
    @..@
    @..@
    @..@
    @..@
    @..@
    @..@
    @..@
    @@@@
    ....
    ....
    ....
    ....
    ....
    ....
    ....
    ....
    ....

